<?xml version="1.0" standalone="no"?>
<!DOCTYPE svg PUBLIC "-//W3C//DTD SVG 1.1//EN" "http://www.w3.org/Graphics/SVG/1.1/DTD/svg11.dtd" >
<svg xmlns="http://www.w3.org/2000/svg" xmlns:xlink="http://www.w3.org/1999/xlink" version="1.1">
<metadata>
Created by FontForge 20161003 at Tue May 30 17:44:56 2017
 By www-data
Copyright (c) 2009 by Oleg Zhuravlev, Gladkikh Ivan. All rights reserved.
</metadata>
<defs>
<font id="BenderBoldItalic" horiz-adv-x="737" >
  <font-face 
    font-family="BenderBoldItalic"
    font-weight="700"
    font-style="italic"
    font-stretch="normal"
    units-per-em="2048"
    panose-1="2 0 8 3 0 0 0 9 0 4"
    ascent="1638"
    descent="-410"
    x-height="1112"
    cap-height="1454"
    bbox="-203 -395 2154 1974"
    underline-thickness="102"
    underline-position="-306"
    slope="-12"
    unicode-range="U+0020-E000"
  />
<missing-glyph horiz-adv-x="2048" 
 />
    <glyph glyph-name=".notdef" horiz-adv-x="2048" 
 />
    <glyph glyph-name="glyph1" horiz-adv-x="0" 
 />
    <glyph glyph-name="glyph2" horiz-adv-x="2048" 
 />
    <glyph glyph-name="space" unicode=" " horiz-adv-x="655" 
 />
    <glyph glyph-name="exclam" unicode="!" horiz-adv-x="550" 
d="M129 45l21 113l90 75h112l62 -75l-21 -113l-88 -76h-112zM199 328l186 1126h246l-207 -1126h-225z" />
    <glyph glyph-name="quotedbl" unicode="&#x22;" 
d="M217 817l80 637h246l-146 -637h-180zM586 817l80 637h245l-145 -637h-180z" />
    <glyph glyph-name="numbersign" unicode="#" horiz-adv-x="1531" 
d="M41 352l37 215h313l184 320h-227l37 215h309l205 352h242l-203 -352h291l205 352h241l-202 -352h231l-37 -215h-313l-187 -320h230l-37 -215h-311l-201 -352h-242l201 352h-293l-201 -352h-241l200 352h-231zM635 567h291l184 320h-291z" />
    <glyph glyph-name="dollar" unicode="$" horiz-adv-x="1155" 
d="M76 86l106 207l211 -78h357l122 104l25 138l-14 30l-613 336l-41 138l45 258l279 235h154l24 143h213l-24 -143h139l233 -84l-98 -203l-213 72h-363l-122 -104l-19 -111l6 -29l609 -333l51 -142l-49 -284l-277 -236h-153l-27 -143h-213l27 143h-132z" />
    <glyph glyph-name="percent" unicode="%" horiz-adv-x="1642" 
d="M190 94l1323 1401l152 -137l-1323 -1399zM219 1014l43 246l230 194h266l160 -194l-44 -246l-229 -195h-266zM434 1077l53 -63h119l74 63l20 119l-51 64h-119l-75 -64zM938 195l43 245l229 195h267l159 -195l-43 -245l-227 -195h-266zM1155 258l51 -63h119l76 63l20 119
l-53 63h-119l-73 -63z" />
    <glyph glyph-name="ampersand" unicode="&#x26;" horiz-adv-x="1226" 
d="M61 236l48 270l348 289l-125 192l41 232l280 235h406l194 -237l-45 -254h-235l31 170l-89 106h-196l-125 -106l-12 -70l376 -582l175 146l133 -164l-191 -160l127 -199l-203 -145l-118 184l-172 -143h-451zM311 322l88 -107h238l127 107l-195 299l-239 -199z" />
    <glyph glyph-name="quotesingle" unicode="'" horiz-adv-x="368" 
d="M217 817l80 637h246l-146 -637h-180z" />
    <glyph glyph-name="parenleft" unicode="(" horiz-adv-x="579" 
d="M53 -41l211 1192l205 260l283 94l36 -202l-186 -62l-113 -143l-190 -1086l61 -143l164 -62l-108 -202l-248 94z" />
    <glyph glyph-name="parenright" unicode=")" horiz-adv-x="579" 
d="M-53 -193l182 62l115 143l190 1086l-63 143l-162 62l106 202l250 -94l115 -260l-211 -1192l-205 -260l-284 -94z" />
    <glyph glyph-name="asterisk" unicode="*" horiz-adv-x="839" 
d="M213 983l203 111l-164 112l129 162l147 -102l35 188h185l-35 -188l184 102l72 -162l-201 -110l162 -113l-129 -162l-148 103l-32 -189h-185l33 189l-184 -103z" />
    <glyph glyph-name="plus" unicode="+" horiz-adv-x="1024" 
d="M125 598l39 215h352l62 354h235l-61 -354h354l-39 -215h-354l-62 -352h-235l61 352h-352z" />
    <glyph glyph-name="comma" unicode="," horiz-adv-x="389" 
d="M-84 -369l217 553h246l-301 -553h-162z" />
    <glyph glyph-name="hyphen" unicode="-" horiz-adv-x="983" 
d="M125 598l39 215h901l-39 -215h-901z" />
    <glyph glyph-name="period" unicode="." horiz-adv-x="387" 
d="M47 45l21 113l90 75h112l62 -75l-21 -113l-88 -76h-112z" />
    <glyph glyph-name="slash" unicode="/" horiz-adv-x="1140" 
d="M-10 61l1208 1455l166 -123l-1208 -1454z" />
    <glyph glyph-name="zero" unicode="0" horiz-adv-x="1300" 
d="M143 236l172 983l301 235h539l215 -235l-172 -983l-299 -236h-539zM418 455l606 784h-352l-135 -109zM489 215h353l135 109l121 675z" />
    <glyph glyph-name="one" unicode="1" horiz-adv-x="763" 
d="M74 0l37 215h206l146 829l22 68l-6 4l-63 -72l-86 -73l-131 159l381 324h192l-219 -1239h207l-37 -215h-649z" />
    <glyph glyph-name="two" unicode="2" horiz-adv-x="1148" 
d="M33 0l65 373l746 418l127 118l39 224l-86 106h-394l-241 -72l-27 205l279 82h526l193 -237l-66 -379l-221 -207l-660 -371l-8 -45h778l-36 -215h-1014z" />
    <glyph glyph-name="three" unicode="3" horiz-adv-x="1128" 
d="M14 86l109 207l211 -78h409l123 102l39 226l-86 102h-405l35 199l423 348l80 49l-2 8l-69 -10h-629l39 215h1012l-35 -192l-430 -355l-82 -49l4 -8l69 10h132l194 -235l-68 -389l-278 -236h-559z" />
    <glyph glyph-name="four" unicode="4" horiz-adv-x="1179" 
d="M53 309l41 234l953 911h198l-164 -930h150l-39 -215h-150l-53 -309h-235l53 309h-754zM350 522l4 -8l70 10h422l84 480l22 67l-8 4l-61 -71l-451 -433z" />
    <glyph glyph-name="five" unicode="5" horiz-adv-x="1193" 
d="M96 86l109 207l217 -78h362l127 107l43 243l-90 107h-639l140 782h962l-39 -215h-727l-61 -352h510l196 -236l-73 -415l-279 -236h-516z" />
    <glyph glyph-name="six" unicode="6" horiz-adv-x="1239" 
d="M143 238l172 979l279 237h551l231 -84l-102 -205l-205 74h-412l-120 -104l-48 -273l144 39h426l194 -237l-75 -426l-277 -238h-563zM393 319l84 -104h359l120 104l48 263l-84 104h-351l-116 -24z" />
    <glyph glyph-name="seven" unicode="7" horiz-adv-x="1054" 
d="M217 1239l39 215h993l-55 -307l-582 -799l-59 -348h-236l70 401l582 799l6 39h-758z" />
    <glyph glyph-name="eight" unicode="8" horiz-adv-x="1275" 
d="M143 236l66 372l203 140l-146 133l60 338l280 235h535l194 -235l-59 -338l-191 -133l154 -140l-65 -372l-279 -236h-555zM393 322l90 -107h342l127 107l39 213l-117 104h-288l-154 -104zM514 944l98 -90h310l131 90l32 189l-90 106h-321l-127 -106z" />
    <glyph glyph-name="nine" unicode="9" horiz-adv-x="1239" 
d="M76 84l102 205l205 -74h412l120 104l48 273l-144 -39h-426l-192 238l73 426l279 237h563l193 -237l-172 -979l-277 -238h-551zM451 872l84 -104h350l114 25l60 342l-84 104h-359l-120 -104z" />
    <glyph glyph-name="colon" unicode=":" horiz-adv-x="387" 
d="M47 45l21 113l90 75h112l62 -75l-21 -113l-88 -76h-112zM176 774l21 113l88 76h112l64 -76l-21 -113l-88 -76h-112z" />
    <glyph glyph-name="semicolon" unicode=";" horiz-adv-x="407" 
d="M-84 -369l217 553h246l-301 -553h-162zM197 774l20 113l88 76h113l63 -76l-20 -113l-88 -76h-113z" />
    <glyph glyph-name="less" unicode="&#x3c;" 
d="M104 477l21 123l612 475l119 -164l-479 -372l348 -373l-176 -164z" />
    <glyph glyph-name="equal" unicode="=" horiz-adv-x="983" 
d="M88 393l39 215h901l-39 -215h-901zM162 805l37 215h901l-37 -215h-901z" />
    <glyph glyph-name="greater" unicode="&#x3e;" 
d="M29 166l479 373l-348 372l176 164l444 -475l-20 -123l-613 -475z" />
    <glyph glyph-name="question" unicode="?" horiz-adv-x="1142" 
d="M190 1200l302 254h569l192 -235l-67 -388l-473 -362l-25 -141h-235l41 239l475 363l35 205l-86 104h-359l-237 -201zM387 45l21 113l90 75h112l62 -75l-21 -113l-88 -76h-112z" />
    <glyph glyph-name="at" unicode="@" horiz-adv-x="1902" 
d="M129 41l201 1139l356 274h1002l258 -274l-150 -844l-229 -195h-342l-11 129l-143 -137h-344l-162 195l35 198l231 195h404l16 98l-53 64h-231l-240 -72l-27 195l277 81h350l162 -194l-82 -473l2 -64h90l78 66l117 665l-142 152h-809l-194 -152l-168 -954l141 -151h940
l-39 -215h-1036zM803 401l53 -63h199l135 129l8 49h-311l-76 -63z" />
    <glyph glyph-name="A" unicode="A" horiz-adv-x="1216" 
d="M4 29l709 1425h262l205 -1425l-232 -70l-57 387h-488l-192 -387zM510 561h352l-67 467l2 139h-9l-47 -139z" />
    <glyph glyph-name="B" unicode="B" horiz-adv-x="1280" 
d="M123 0l256 1454h795l161 -197l-69 -393l-154 -106l154 -140l-68 -380l-278 -238h-797zM395 215h461l121 102l39 228l-117 104h-428zM510 864h438l92 64l45 248l-53 63h-457z" />
    <glyph glyph-name="C" unicode="C" horiz-adv-x="1241" 
d="M143 238l172 979l281 237h559l195 -237l-45 -254h-236l31 170l-88 106h-350l-125 -106l-144 -811l88 -107h373l213 180l133 -159l-276 -236h-584z" />
    <glyph glyph-name="D" unicode="D" horiz-adv-x="1302" 
d="M123 0l256 1454h799l194 -240l-172 -974l-278 -240h-799zM395 215h459l125 107l143 811l-88 106h-459z" />
    <glyph glyph-name="E" unicode="E" horiz-adv-x="1132" 
d="M123 0l256 1454h928l-39 -215h-693l-65 -373h606l-37 -215h-606l-78 -436h692l-36 -215h-928z" />
    <glyph glyph-name="F" unicode="F" horiz-adv-x="1112" 
d="M123 0l256 1454h928l-39 -215h-693l-73 -420h606l-37 -215h-606l-107 -604h-235z" />
    <glyph glyph-name="G" unicode="G" horiz-adv-x="1280" 
d="M143 236l172 983l279 235h563l193 -235l-45 -256h-236l31 172l-84 104h-359l-120 -104l-144 -816l84 -104h359l120 104l43 246h-313l39 215h471l64 -78l-82 -466l-277 -236h-563z" />
    <glyph glyph-name="H" unicode="H" horiz-adv-x="1320" 
d="M123 0l256 1454h235l-104 -588h563l105 588h235l-256 -1454h-235l114 651h-563l-115 -651h-235z" />
    <glyph glyph-name="I" unicode="I" horiz-adv-x="813" 
d="M61 0l37 215h207l180 1024h-206l38 215h650l-39 -215h-207l-180 -1024h207l-37 -215h-650z" />
    <glyph glyph-name="J" unicode="J" horiz-adv-x="1114" 
d="M29 281l186 157l188 -223h263l125 107l161 917h-282l39 215h518l-215 -1216l-279 -238h-473z" />
    <glyph glyph-name="K" unicode="K" horiz-adv-x="1181" 
d="M123 0l256 1454h235l-114 -649l729 690l147 -152l-545 -516l320 -749l-217 -119l-295 688l-201 -190l-80 -457h-235z" />
    <glyph glyph-name="L" unicode="L" horiz-adv-x="1081" 
d="M123 0l256 1454h235l-219 -1239h682l-37 -215h-917z" />
    <glyph glyph-name="M" unicode="M" horiz-adv-x="1703" 
d="M123 0l256 1454h233l308 -784l12 -68h8l37 68l586 784h233l-256 -1454h-235l163 932l41 127h-8l-71 -125l-449 -604h-184l-236 604l-26 125h-9l-4 -127l-164 -932h-235z" />
    <glyph glyph-name="N" unicode="N" horiz-adv-x="1323" 
d="M123 0l256 1454h227l369 -934l29 -125h8l2 127l166 932h235l-256 -1454h-227l-371 934l-26 125h-9l-4 -127l-164 -932h-235z" />
    <glyph glyph-name="O" unicode="O" horiz-adv-x="1341" 
d="M143 236l172 983l301 235h580l215 -235l-172 -983l-299 -236h-580zM393 322l99 -107h391l135 109l143 806l-98 109h-391l-135 -109z" />
    <glyph glyph-name="P" unicode="P" horiz-adv-x="1259" 
d="M123 0l256 1454h797l194 -235l-84 -478l-278 -235h-562l-88 -506h-235zM485 721h459l123 106l53 306l-86 106h-459z" />
    <glyph glyph-name="Q" unicode="Q" horiz-adv-x="1341" 
d="M143 236l172 983l301 235h580l215 -235l-172 -983l-299 -236h-172l-51 -283h-236l51 283h-172zM393 322l99 -107h77l23 123h235l-22 -123h78l135 109l143 806l-98 109h-391l-135 -109z" />
    <glyph glyph-name="R" unicode="R" horiz-adv-x="1284" 
d="M123 0l256 1454h811l184 -221l-80 -451l-262 -221h-135l-43 21l-6 -7l41 -36l311 -424l-199 -156l-442 602h-102l-99 -561h-235zM494 776h464l117 96l47 271l-82 96h-465z" />
    <glyph glyph-name="S" unicode="S" horiz-adv-x="1155" 
d="M76 86l106 207l211 -78h357l122 104l25 138l-14 30l-613 336l-41 138l45 258l279 235h506l233 -84l-98 -203l-213 72h-363l-122 -104l-19 -111l6 -29l609 -333l51 -142l-49 -284l-277 -236h-498z" />
    <glyph glyph-name="T" unicode="T" horiz-adv-x="1103" 
d="M217 1239l39 215h1063l-39 -215h-414l-217 -1239h-235l217 1239h-414z" />
    <glyph glyph-name="U" unicode="U" horiz-adv-x="1280" 
d="M143 236l215 1218h236l-201 -1132l86 -107h355l122 107l201 1132h236l-215 -1218l-279 -236h-559z" />
    <glyph glyph-name="V" unicode="V" horiz-adv-x="1228" 
d="M250 1423l235 72l158 -1061l-2 -139h8l47 139l531 1061l211 -72l-711 -1423h-266z" />
    <glyph glyph-name="W" unicode="W" horiz-adv-x="1863" 
d="M252 1432l237 63l101 -944l-2 -139h8l49 139l397 840h226l102 -840v-139h8l47 139l433 944l217 -63l-656 -1432h-215l-108 903l2 139h-8l-48 -139l-424 -903h-215z" />
    <glyph glyph-name="X" unicode="X" horiz-adv-x="1175" 
d="M20 88l539 633l-319 647l213 127l256 -522l12 -68h8l37 68l440 522l168 -127l-545 -647l314 -633l-215 -129l-250 506l-14 67h-9l-34 -67l-431 -506z" />
    <glyph glyph-name="Y" unicode="Y" horiz-adv-x="1204" 
d="M244 1389l231 106l221 -692v-119h9l45 119l462 692l195 -106l-631 -940l-78 -449h-235l78 453z" />
    <glyph glyph-name="Z" unicode="Z" horiz-adv-x="1136" 
d="M41 0l31 178l870 1039l53 36l-2 7l-51 -21h-674l39 215h1004l-33 -182l-870 -1034l-54 -37l2 -6l52 20h673l-37 -215h-1003z" />
    <glyph glyph-name="bracketleft" unicode="[" horiz-adv-x="530" 
d="M0 -344l317 1798h449l-39 -215h-213l-242 -1368h213l-36 -215h-449z" />
    <glyph glyph-name="backslash" unicode="\" horiz-adv-x="1140" 
d="M223 1393l211 123l696 -1455l-210 -122z" />
    <glyph glyph-name="bracketright" unicode="]" horiz-adv-x="530" 
d="M-80 -344l37 215h211l242 1368h-213l39 215h448l-317 -1798h-447z" />
    <glyph glyph-name="asciicircum" unicode="^" horiz-adv-x="1044" 
d="M131 864l551 590h152l342 -590l-203 -135l-264 455l-424 -455z" />
    <glyph glyph-name="underscore" unicode="_" horiz-adv-x="954" 
d="M-57 -215l37 215h954l-39 -215h-952z" />
    <glyph glyph-name="grave" unicode="`" horiz-adv-x="481" 
d="M215 1454h234l204 -471h-194z" />
    <glyph glyph-name="a" unicode="a" horiz-adv-x="1155" 
d="M104 195l127 723l232 194h514l162 -194l-111 -631l19 -260l-199 -47l-12 157l-142 -137h-426zM354 279l54 -64h260l135 129l86 490l-51 63h-310l-75 -63z" />
    <glyph glyph-name="b" unicode="b" horiz-adv-x="1179" 
d="M174 195l176 997l-33 209l234 74l41 -254l-35 -189l125 80h362l162 -194l-127 -723l-229 -195h-512zM424 279l53 -64h307l74 64l98 555l-51 63h-239l-148 -94z" />
    <glyph glyph-name="c" unicode="c" horiz-adv-x="1083" 
d="M125 195l127 723l231 194h512l162 -194l-41 -242h-235l26 158l-51 63h-307l-76 -63l-98 -555l53 -64h330l237 72l31 -205l-276 -82h-461z" />
    <glyph glyph-name="d" unicode="d" horiz-adv-x="1173" 
d="M125 195l127 723l231 194h363l96 -80l76 422h235l-206 -1167l18 -260l-199 -47l-12 157l-141 -137h-424zM375 279l53 -64h258l135 129l82 459l-115 94h-239l-76 -63z" />
    <glyph glyph-name="e" unicode="e" horiz-adv-x="1095" 
d="M125 195l127 723l231 194h512l162 -194l-53 -314l-207 -174h-494l-28 -151l53 -64h320l241 72l29 -205l-277 -82h-452zM440 645h381l64 53l22 136l-51 63h-307l-76 -63z" />
    <glyph glyph-name="f" unicode="f" horiz-adv-x="866" 
d="M94 -289l107 209l149 854h-184l39 215h184l47 271l230 194h266l248 -82l-101 -203l-211 70h-137l-74 -63l-32 -187h297l-39 -215h-297l-156 -883l-129 -253z" />
    <glyph glyph-name="g" unicode="g" horiz-adv-x="1140" 
d="M55 -262l103 205l211 -72h315l76 63l33 187l-125 -80h-363l-162 195l119 682l232 194h512l161 -194l-186 -1068l-231 -194h-447zM393 319l53 -63h240l148 94l84 484l-52 63h-307l-76 -63z" />
    <glyph glyph-name="h" unicode="h" horiz-adv-x="1179" 
d="M141 0l209 1192l-33 209l234 74l41 -254l-35 -189l125 80h362l162 -194l-159 -918h-236l145 834l-51 63h-239l-148 -94l-141 -803h-236z" />
    <glyph glyph-name="i" unicode="i" horiz-adv-x="524" 
d="M141 0l150 850l-33 209l234 74l38 -254l-153 -879h-236zM358 1315l19 112l90 76h113l61 -76l-18 -112l-91 -76h-112z" />
    <glyph glyph-name="j" unicode="j" horiz-adv-x="520" 
d="M-203 -172l266 90l72 80l152 852l-33 209l233 74l39 -254l-166 -942l-176 -197l-354 -119zM354 1315l19 112l90 76h112l62 -76l-19 -112l-90 -76h-112z" />
    <glyph glyph-name="k" unicode="k" horiz-adv-x="1056" 
d="M162 0l209 1192l-33 209l233 74l41 -254l-96 -537l565 459l127 -164l-428 -348l273 -533l-209 -129l-260 508l-121 -96l-66 -381h-235z" />
    <glyph glyph-name="l" unicode="l" horiz-adv-x="509" 
d="M141 0l209 1192l-33 209l234 74l41 -254l-215 -1221h-236z" />
    <glyph glyph-name="m" unicode="m" horiz-adv-x="1728" 
d="M135 0l146 825l-19 260l199 48l10 -158l143 137h340l86 -117l127 117h426l162 -194l-160 -918h-235l145 834l-51 63h-237l-91 -82l-143 -815h-235l143 815l-62 82h-188l-135 -129l-135 -768h-236z" />
    <glyph glyph-name="n" unicode="n" horiz-adv-x="1175" 
d="M135 0l146 825l-19 260l199 48l10 -158l143 137h426l162 -194l-160 -918h-235l145 834l-51 63h-260l-135 -129l-135 -768h-236z" />
    <glyph glyph-name="o" unicode="o" horiz-adv-x="1140" 
d="M125 197l127 718l229 197h527l159 -197l-127 -718l-227 -197h-526zM375 279l53 -64h317l74 64l99 555l-52 63h-317l-76 -63z" />
    <glyph glyph-name="p" unicode="p" horiz-adv-x="1173" 
d="M74 -344l207 1169l-19 260l199 48l10 -158l143 137h424l162 -194l-127 -723l-229 -195h-363l-98 80l-74 -424h-235zM424 309l115 -94h239l74 64l98 555l-51 63h-258l-135 -129z" />
    <glyph glyph-name="q" unicode="q" horiz-adv-x="1159" 
d="M125 195l127 723l231 194h512l162 -194l-174 -998l33 -209l-236 -73l-39 253l33 189l-123 -80h-362zM375 279l53 -64h240l147 94l92 525l-51 63h-307l-76 -63z" />
    <glyph glyph-name="r" unicode="r" horiz-adv-x="1021" 
d="M135 0l146 825l-19 260l199 48l10 -158l143 137h340l201 -235l-184 -160l-152 180h-178l-135 -129l-135 -768h-236z" />
    <glyph glyph-name="s" unicode="s" horiz-adv-x="1005" 
d="M45 86l107 207l219 -78h284l78 66l8 47l-20 47l-502 184l-55 127l39 232l229 194h438l244 -86l-106 -207l-220 78h-286l-78 -66l-8 -43l20 -47l502 -184l57 -127l-43 -235l-227 -195h-436z" />
    <glyph glyph-name="t" unicode="t" horiz-adv-x="948" 
d="M174 877l37 215h184l54 301h235l-53 -301h297l-37 -215h-297l-107 -598l54 -64h137l235 70l29 -203l-276 -82h-267l-161 195l120 682h-184z" />
    <glyph glyph-name="u" unicode="u" horiz-adv-x="1175" 
d="M125 195l162 917h235l-147 -833l53 -64h260l135 129l135 768h236l-145 -825l18 -260l-199 -47l-12 157l-141 -137h-426z" />
    <glyph glyph-name="v" unicode="v" horiz-adv-x="1081" 
d="M186 1059l228 84l151 -711l4 -121h9l49 121l401 711l199 -84l-598 -1059h-217z" />
    <glyph glyph-name="w" unicode="w" horiz-adv-x="1523" 
d="M188 1079l228 64l76 -631l2 -119h8l45 119l268 547h225l76 -547v-119h8l47 119l297 631l203 -64l-508 -1079h-198l-88 625v118h-9l-45 -118l-305 -625h-199z" />
    <glyph glyph-name="x" unicode="x" horiz-adv-x="1011" 
d="M16 98l422 455l-260 463l211 137l205 -367l12 -67h8l37 67l336 367l162 -137l-424 -463l262 -455l-209 -139l-209 363l-12 67h-8l-37 -67l-336 -363z" />
    <glyph glyph-name="y" unicode="y" horiz-adv-x="1067" 
d="M94 -344l37 215h215l64 53l39 76h-41l-232 1059l230 84l165 -764l7 -121h8l47 121l385 764l207 -72l-641 -1272l-168 -143h-322z" />
    <glyph glyph-name="z" unicode="z" horiz-adv-x="966" 
d="M20 0l31 184l672 690l53 37l-4 7l-49 -21h-541l37 215h881l-33 -186l-668 -688l-53 -37l2 -6l51 20h539l-37 -215h-881z" />
    <glyph glyph-name="braceleft" unicode="{" horiz-adv-x="698" 
d="M106 489l21 119l207 158l76 420l198 246l285 63l12 -205l-176 -39l-94 -116l-80 -461l-164 -125l119 -125l-80 -449l53 -116l162 -39l-84 -205l-262 63l-113 246l72 408z" />
    <glyph glyph-name="bar" unicode="|" horiz-adv-x="524" 
d="M61 -344l318 1798h237l-317 -1798h-238z" />
    <glyph glyph-name="braceright" unicode="}" horiz-adv-x="698" 
d="M-51 -180l172 39l94 116l80 449l164 125l-119 125l80 461l-53 116l-160 39l82 205l264 -63l113 -246l-76 -420l153 -158l-20 -119l-209 -157l-72 -408l-198 -246l-285 -63z" />
    <glyph glyph-name="asciitilde" unicode="~" horiz-adv-x="1271" 
d="M154 760l186 158l188 -224h37l281 238h248l231 -281l-188 -157l-189 223h-37l-278 -238h-248z" />
    <glyph glyph-name="uni00A0" unicode="&#xa0;" horiz-adv-x="655" 
 />
    <glyph glyph-name="cent" unicode="&#xa2;" horiz-adv-x="1083" 
d="M125 195l127 723l231 194h158l27 143h213l-27 -143h141l162 -194l-41 -242h-235l26 158l-51 63h-307l-76 -63l-98 -555l53 -64h330l237 72l31 -205l-276 -82h-91l-26 -143h-213l26 143h-157z" />
    <glyph glyph-name="yen" unicode="&#xa5;" horiz-adv-x="1204" 
d="M162 236l33 184h342l4 33l-13 39h-321l33 184h231l-227 713l231 106l221 -692v-119h9l45 119l462 692l195 -106l-477 -713h209l-33 -184h-301l-29 -43l-4 -29h322l-33 -184h-322l-41 -236h-235l41 236h-342z" />
    <glyph glyph-name="copyright" unicode="&#xa9;" horiz-adv-x="1800" 
d="M150 276l159 902l355 276h944l256 -276l-160 -902l-352 -276h-944zM401 369l142 -154h747l195 154l127 716l-142 154h-747l-195 -154zM598 514l74 426l229 197h344l160 -197l-29 -168h-215l19 107l-52 63h-176l-75 -63l-54 -304l54 -63h170l239 72l25 -187l-269 -80h-284
z" />
    <glyph glyph-name="guillemotleft" unicode="&#xab;" horiz-adv-x="1355" 
d="M115 539l694 538l119 -166l-482 -372l351 -373l-176 -166zM662 539l694 538l119 -166l-482 -372l350 -373l-176 -166z" />
    <glyph glyph-name="uni00AD" unicode="&#xad;" horiz-adv-x="983" 
d="M125 598l39 215h901l-39 -215h-901z" />
    <glyph glyph-name="registered" unicode="&#xae;" horiz-adv-x="1800" 
d="M150 276l159 902l355 276h944l256 -276l-160 -902l-352 -276h-944zM401 369l142 -154h747l195 154l127 716l-142 154h-747l-195 -154zM586 338l137 778h620l97 -115l-51 -290l-138 -115h-51l-26 12l-7 -6l27 -24l147 -220l-38 -30h-191l-180 268h-86l-45 -258h-215z
M881 791h288l23 20l16 90l-16 21h-289z" />
    <glyph glyph-name="guillemotright" unicode="&#xbb;" horiz-adv-x="1355" 
d="M29 166l481 373l-350 372l176 166l506 -538l-695 -539zM575 166l482 373l-350 372l176 166l506 -538l-695 -539z" />
    <glyph glyph-name="afii10023" unicode="&#x401;" horiz-adv-x="1132" 
d="M123 0l256 1454h928l-39 -215h-693l-65 -373h606l-37 -215h-606l-78 -436h692l-36 -215h-928zM567 1673l19 113l90 76h112l62 -76l-19 -113l-90 -76h-112zM950 1673l19 113l90 76h112l62 -76l-19 -113l-90 -76h-112z" />
    <glyph glyph-name="afii10051" unicode="&#x402;" horiz-adv-x="1370" 
d="M156 1239l39 215h755l-39 -215h-260l-61 -346l186 39h420l160 -197l-103 -575l-176 -197l-315 -104l-37 204l233 78l72 80l76 436l-51 60h-385l-115 -25l-121 -692h-235l217 1239h-260z" />
    <glyph glyph-name="afii10052" unicode="&#x403;" horiz-adv-x="1079" 
d="M123 0l256 1454h915l-39 -215h-680l-217 -1239h-235zM745 1567l267 348h225l-307 -348h-185z" />
    <glyph glyph-name="afii10053" unicode="&#x404;" horiz-adv-x="1241" 
d="M143 238l172 979l281 237h559l195 -237l-45 -254h-236l31 170l-88 106h-350l-125 -106l-56 -316h500l-39 -215h-500l-49 -280l88 -107h373l213 180l133 -159l-276 -236h-584z" />
    <glyph glyph-name="afii10054" unicode="&#x405;" horiz-adv-x="1155" 
d="M76 86l106 207l211 -78h357l122 104l25 138l-14 30l-613 336l-41 138l45 258l279 235h506l233 -84l-98 -203l-213 72h-363l-122 -104l-19 -111l6 -29l609 -333l51 -142l-49 -284l-277 -236h-498z" />
    <glyph glyph-name="afii10055" unicode="&#x406;" horiz-adv-x="813" 
d="M61 0l37 215h207l180 1024h-206l38 215h650l-39 -215h-207l-180 -1024h207l-37 -215h-650z" />
    <glyph glyph-name="afii10056" unicode="&#x407;" horiz-adv-x="813" 
d="M61 0l37 215h207l180 1024h-206l38 215h650l-39 -215h-207l-180 -1024h207l-37 -215h-650zM354 1653l19 112l90 76h112l62 -76l-19 -112l-90 -76h-112zM737 1653l19 112l90 76h112l62 -76l-19 -112l-90 -76h-112z" />
    <glyph glyph-name="afii10057" unicode="&#x408;" horiz-adv-x="1114" 
d="M29 281l186 157l188 -223h263l125 107l161 917h-282l39 215h518l-215 -1216l-279 -238h-473z" />
    <glyph glyph-name="afii10058" unicode="&#x409;" horiz-adv-x="1990" 
d="M10 178l176 55l82 72l322 1149h819l-94 -528h500l194 -240l-80 -446l-276 -240h-735l217 1239h-371l-285 -1024l-196 -170l-240 -76zM1190 215h391l127 109l49 278l-88 109h-391z" />
    <glyph glyph-name="afii10059" unicode="&#x40a;" horiz-adv-x="1933" 
d="M123 0l256 1454h235l-96 -543h502l96 543h236l-97 -543h500l193 -239l-76 -432l-277 -240h-735l121 696h-502l-121 -696h-235zM1133 215h391l127 109l47 264l-90 108h-391z" />
    <glyph glyph-name="afii10060" unicode="&#x40b;" horiz-adv-x="1370" 
d="M156 1239l39 215h755l-39 -215h-260l-61 -346l186 39h420l160 -197l-129 -735h-236l115 657l-51 60h-385l-115 -25l-121 -692h-235l217 1239h-260z" />
    <glyph glyph-name="afii10061" unicode="&#x40c;" horiz-adv-x="1214" 
d="M123 0l256 1454h237l-108 -610h176l383 557l297 84l33 -209l-189 -53l-342 -496l166 -496l172 -53l-106 -209l-269 84l-192 576h-166l-111 -629h-237zM733 1495l266 348h226l-307 -348h-185z" />
    <glyph glyph-name="afii10062" unicode="&#x40e;" horiz-adv-x="1204" 
d="M203 0l37 215h225l47 39l51 90l-340 1047l228 104l262 -805l2 -119h8l43 119l467 805l199 -86l-730 -1253l-190 -156h-309zM528 1692l43 237h195l-31 -168l29 -35h270l41 35l31 168h194l-43 -237l-178 -150h-426z" />
    <glyph glyph-name="afii10145" unicode="&#x40f;" horiz-adv-x="1318" 
d="M123 0l256 1454h235l-219 -1239h561l220 1239h235l-256 -1454h-397l-62 -344h-235l61 344h-399z" />
    <glyph glyph-name="afii10017" unicode="&#x410;" horiz-adv-x="1216" 
d="M4 29l709 1425h262l205 -1425l-232 -70l-57 387h-488l-192 -387zM510 561h352l-67 467l2 139h-9l-47 -139z" />
    <glyph glyph-name="afii10018" unicode="&#x411;" horiz-adv-x="1259" 
d="M123 0l256 1454h948l-39 -215h-713l-59 -344h563l193 -240l-74 -415l-276 -240h-799zM395 215h455l127 109l45 247l-90 109h-455z" />
    <glyph glyph-name="afii10019" unicode="&#x412;" horiz-adv-x="1280" 
d="M123 0l256 1454h795l161 -197l-69 -393l-154 -106l154 -140l-68 -380l-278 -238h-797zM395 215h461l121 102l39 228l-117 104h-428zM510 864h438l92 64l45 248l-53 63h-457z" />
    <glyph glyph-name="afii10020" unicode="&#x413;" horiz-adv-x="1079" 
d="M123 0l256 1454h915l-39 -215h-680l-217 -1239h-235z" />
    <glyph glyph-name="afii10021" unicode="&#x414;" horiz-adv-x="1384" 
d="M-80 -344l96 559h136l112 174l307 1065h859l-220 -1239h150l-98 -559h-236l61 344h-872l-61 -344h-234zM406 215h569l180 1024h-412l-260 -903z" />
    <glyph glyph-name="afii10022" unicode="&#x415;" horiz-adv-x="1132" 
d="M123 0l256 1454h928l-39 -215h-693l-65 -373h606l-37 -215h-606l-78 -436h692l-36 -215h-928z" />
    <glyph glyph-name="afii10024" unicode="&#x416;" horiz-adv-x="1841" 
d="M31 176l188 55l342 496l-166 496l-170 55l105 207l262 -84l186 -557h152l108 610h236l-109 -610h152l383 557l291 84l34 -207l-190 -55l-342 -496l166 -496l172 -55l-107 -207l-262 84l-192 576h-142l-110 -629h-236l111 629h-141l-398 -576l-291 -84z" />
    <glyph glyph-name="afii10025" unicode="&#x417;" horiz-adv-x="1144" 
d="M-6 86l106 203l211 -74h406l125 107l35 200l-117 105h-348l39 215h358l125 86l39 217l-80 94h-383l-236 -78l-36 207l278 86h524l183 -223l-64 -367l-186 -129l153 -139l-63 -360l-277 -236h-555z" />
    <glyph glyph-name="afii10026" unicode="&#x418;" horiz-adv-x="1323" 
d="M123 0l256 1454h235l-165 -932l-39 -127h8l69 125l701 934h227l-256 -1454h-235l163 932l41 127h-8l-71 -125l-699 -934h-227z" />
    <glyph glyph-name="afii10027" unicode="&#x419;" horiz-adv-x="1323" 
d="M123 0l256 1454h235l-165 -932l-39 -127h8l69 125l701 934h227l-256 -1454h-235l163 932l41 127h-8l-71 -125l-699 -934h-227zM582 1737l41 237h194l-29 -168l29 -34h270l41 34l29 168h195l-41 -237l-178 -150h-426z" />
    <glyph glyph-name="afii10028" unicode="&#x41a;" horiz-adv-x="1214" 
d="M123 0l256 1454h237l-108 -610h176l383 557l297 84l33 -209l-189 -53l-342 -496l166 -496l172 -53l-106 -209l-269 84l-192 576h-166l-111 -629h-237z" />
    <glyph glyph-name="afii10029" unicode="&#x41b;" horiz-adv-x="1378" 
d="M10 178l176 55l82 72l322 1149h880l-256 -1454h-235l217 1239h-432l-285 -1024l-196 -170l-240 -76z" />
    <glyph glyph-name="afii10030" unicode="&#x41c;" horiz-adv-x="1703" 
d="M123 0l256 1454h233l308 -784l12 -68h8l37 68l586 784h233l-256 -1454h-235l163 932l41 127h-8l-71 -125l-449 -604h-184l-236 604l-26 125h-9l-4 -127l-164 -932h-235z" />
    <glyph glyph-name="afii10031" unicode="&#x41d;" horiz-adv-x="1320" 
d="M123 0l256 1454h235l-104 -588h563l105 588h235l-256 -1454h-235l114 651h-563l-115 -651h-235z" />
    <glyph glyph-name="afii10032" unicode="&#x41e;" horiz-adv-x="1341" 
d="M143 236l172 983l301 235h580l215 -235l-172 -983l-299 -236h-580zM393 322l99 -107h391l135 109l143 806l-98 109h-391l-135 -109z" />
    <glyph glyph-name="afii10033" unicode="&#x41f;" horiz-adv-x="1320" 
d="M123 0l256 1454h1034l-256 -1454h-235l217 1239h-564l-217 -1239h-235z" />
    <glyph glyph-name="afii10034" unicode="&#x420;" horiz-adv-x="1259" 
d="M123 0l256 1454h797l194 -235l-84 -478l-278 -235h-562l-88 -506h-235zM485 721h459l123 106l53 306l-86 106h-459z" />
    <glyph glyph-name="afii10035" unicode="&#x421;" horiz-adv-x="1241" 
d="M143 238l172 979l281 237h559l195 -237l-45 -254h-236l31 170l-88 106h-350l-125 -106l-144 -811l88 -107h373l213 180l133 -159l-276 -236h-584z" />
    <glyph glyph-name="afii10036" unicode="&#x422;" horiz-adv-x="1103" 
d="M217 1239l39 215h1063l-39 -215h-414l-217 -1239h-235l217 1239h-414z" />
    <glyph glyph-name="afii10037" unicode="&#x423;" horiz-adv-x="1204" 
d="M203 0l37 215h225l47 39l51 90l-340 1047l228 104l262 -805l2 -119h8l43 119l467 805l199 -86l-730 -1253l-190 -156h-309z" />
    <glyph glyph-name="afii10038" unicode="&#x424;" horiz-adv-x="1689" 
d="M156 422l120 692l281 238h387l41 235h236l-41 -235h387l194 -238l-121 -692l-280 -238h-387l-41 -235h-236l41 235h-387zM406 506l88 -107h282l129 738h-282l-125 -107zM1012 399h282l125 107l92 524l-88 107h-282z" />
    <glyph glyph-name="afii10039" unicode="&#x425;" horiz-adv-x="1175" 
d="M20 88l539 633l-319 647l213 127l256 -522l12 -68h8l37 68l440 522l168 -127l-545 -647l314 -633l-215 -129l-250 506l-14 67h-9l-34 -67l-431 -506z" />
    <glyph glyph-name="afii10040" unicode="&#x426;" horiz-adv-x="1388" 
d="M123 0l256 1454h235l-219 -1239h561l220 1239h235l-219 -1239h172l-98 -559h-236l62 344h-969z" />
    <glyph glyph-name="afii10041" unicode="&#x427;" horiz-adv-x="1294" 
d="M227 719l131 735h236l-117 -657l51 -60h385l115 25l123 692h235l-256 -1454h-235l98 561l-186 -39h-420z" />
    <glyph glyph-name="afii10042" unicode="&#x428;" horiz-adv-x="2062" 
d="M123 0l256 1454h233l-219 -1239h537l219 1239h235l-219 -1239h535l219 1239h235l-256 -1454h-1775z" />
    <glyph glyph-name="afii10043" unicode="&#x429;" horiz-adv-x="2072" 
d="M123 0l256 1454h235l-219 -1239h506l219 1239h236l-219 -1239h503l220 1239h235l-219 -1239h172l-98 -559h-236l62 344h-1653z" />
    <glyph glyph-name="afii10044" unicode="&#x42a;" horiz-adv-x="1406" 
d="M197 1239l39 215h528l-94 -528h561l194 -240l-79 -446l-277 -240h-797l217 1239h-292zM545 215h452l127 109l50 278l-89 109h-452z" />
    <glyph glyph-name="afii10045" unicode="&#x42b;" horiz-adv-x="1767" 
d="M123 0l256 1454h235l-94 -528h561l195 -240l-80 -446l-276 -240h-797zM395 215h453l127 109l49 278l-88 109h-453zM1368 0l256 1454h236l-256 -1454h-236z" />
    <glyph glyph-name="afii10046" unicode="&#x42c;" horiz-adv-x="1257" 
d="M123 0l256 1454h235l-94 -528h561l195 -240l-80 -446l-276 -240h-797zM395 215h453l127 109l49 278l-88 109h-453z" />
    <glyph glyph-name="afii10047" unicode="&#x42d;" horiz-adv-x="1241" 
d="M82 236l190 159l148 -180h373l125 107l49 280h-500l39 215h500l55 316l-88 106h-350l-125 -106l-31 -170h-236l45 254l281 237h559l195 -237l-172 -979l-279 -238h-584z" />
    <glyph glyph-name="afii10048" unicode="&#x42e;" horiz-adv-x="1812" 
d="M123 0l256 1454h235l-104 -590h248l61 355l301 235h547l215 -235l-172 -983l-299 -236h-547l-217 236l72 413h-248l-113 -649h-235zM897 322l98 -107h359l135 109l143 806l-98 109h-358l-136 -109z" />
    <glyph glyph-name="afii10049" unicode="&#x42f;" horiz-adv-x="1284" 
d="M92 176l189 55l223 283l53 37l-4 6l-49 -20h-101l-184 221l84 475l262 221h811l-256 -1454h-235l94 537h-191l-380 -486l-283 -82zM469 848l82 -96h465l86 487h-465l-115 -96z" />
    <glyph glyph-name="afii10065" unicode="&#x430;" horiz-adv-x="1155" 
d="M104 195l127 723l232 194h514l162 -194l-111 -631l19 -260l-199 -47l-12 157l-142 -137h-426zM354 279l54 -64h260l135 129l86 490l-51 63h-310l-75 -63z" />
    <glyph glyph-name="afii10066" unicode="&#x431;" horiz-adv-x="1130" 
d="M125 195l162 919l309 268l385 72l201 127l100 -192l-217 -138l-389 -71l-166 -146l-23 -127l123 80h375l162 -194l-107 -598l-227 -195h-526zM375 279l53 -64h317l74 64l78 430l-53 63h-250l-148 -94z" />
    <glyph glyph-name="afii10067" unicode="&#x432;" horiz-adv-x="1105" 
d="M119 160l139 792l188 160h547l131 -160l-51 -299l-131 -84l131 -110l-47 -266l-225 -193h-549zM369 244l24 -29h338l74 64l20 110l-86 72h-331zM446 676h326l78 49l24 143l-22 29h-338l-35 -29z" />
    <glyph glyph-name="afii10068" unicode="&#x433;" horiz-adv-x="999" 
d="M74 195l41 233l100 127l567 184l37 47l8 45l-53 66h-270l-248 -78l-33 207l273 86h422l159 -194l-41 -234l-100 -127l-565 -184l-37 -47l-8 -45l53 -66h270l248 78l33 -207l-273 -86h-421z" />
    <glyph glyph-name="afii10069" unicode="&#x434;" horiz-adv-x="1150" 
d="M135 195l107 598l227 194h375l98 -80l33 187l-117 145h-235l-248 -78l-33 207l274 86h385l224 -280l-174 -979l-228 -195h-526zM385 279l53 -64h318l73 64l72 399l-115 94h-249l-74 -63z" />
    <glyph glyph-name="afii10070" unicode="&#x435;" horiz-adv-x="1095" 
d="M125 195l127 723l231 194h512l162 -194l-53 -314l-207 -174h-494l-28 -151l53 -64h320l241 72l29 -205l-277 -82h-452zM440 645h381l64 53l22 136l-51 63h-307l-76 -63z" />
    <glyph glyph-name="afii10072" unicode="&#x436;" horiz-adv-x="1492" 
d="M16 158l164 78l275 317l-162 324l-135 77l137 199l197 -113l190 -381h41l80 453h235l-80 -453h41l326 381l238 113l67 -199l-164 -77l-276 -324l164 -317l135 -78l-137 -199l-197 113l-192 372h-41l-78 -444h-236l78 444h-41l-323 -372l-238 -113z" />
    <glyph glyph-name="afii10073" unicode="&#x437;" horiz-adv-x="1032" 
d="M25 82l98 205l217 -72h317l74 64l19 100l-86 72h-324l39 215h317l107 67l18 109l-45 55h-313l-225 -72l-33 201l270 86h443l153 -186l-47 -264l-158 -103l131 -110l-45 -254l-227 -195h-453z" />
    <glyph glyph-name="afii10074" unicode="&#x438;" horiz-adv-x="1175" 
d="M125 195l162 917h235l-147 -833l53 -64h260l135 129l135 768h236l-145 -825l18 -260l-199 -47l-12 157l-141 -137h-426z" />
    <glyph glyph-name="afii10075" unicode="&#x439;" horiz-adv-x="1175" 
d="M125 195l162 917h235l-147 -833l53 -64h260l135 129l135 768h236l-145 -825l18 -260l-199 -47l-12 157l-141 -137h-426zM434 1415l33 178h195l-21 -108l29 -35h260l41 35l20 108h195l-33 -178l-178 -149h-416z" />
    <glyph glyph-name="afii10076" unicode="&#x43a;" horiz-adv-x="1021" 
d="M92 0l195 1112h235l-80 -453h86l326 381l238 113l67 -199l-164 -77l-276 -324l164 -317l135 -78l-137 -199l-197 113l-192 372h-86l-78 -444h-236z" />
    <glyph glyph-name="afii10077" unicode="&#x43b;" horiz-adv-x="1169" 
d="M10 176l144 49l82 72l235 815h760l-195 -1112h-235l157 897h-307l-205 -700l-167 -150l-230 -78z" />
    <glyph glyph-name="afii10078" unicode="&#x43c;" horiz-adv-x="1384" 
d="M92 0l195 1112h229l223 -557l13 -68h8l37 68l420 557h229l-195 -1112h-235l108 618l41 127h-8l-72 -124l-278 -369h-184l-148 369l-26 124h-9l-4 -127l-108 -618h-236z" />
    <glyph glyph-name="afii10079" unicode="&#x43d;" horiz-adv-x="1179" 
d="M141 0l152 860l-33 209l234 74l38 -254l-40 -230h434l80 453h235l-194 -1112h-236l78 444h-434l-78 -444h-236z" />
    <glyph glyph-name="afii10080" unicode="&#x43e;" horiz-adv-x="1140" 
d="M125 197l127 718l229 197h527l159 -197l-127 -718l-227 -197h-526zM375 279l53 -64h317l74 64l99 555l-52 63h-317l-76 -63z" />
    <glyph glyph-name="afii10081" unicode="&#x43f;" horiz-adv-x="1175" 
d="M135 0l146 825l-19 260l199 48l10 -158l143 137h426l162 -194l-160 -918h-235l145 834l-51 63h-260l-135 -129l-135 -768h-236z" />
    <glyph glyph-name="afii10082" unicode="&#x440;" horiz-adv-x="1173" 
d="M74 -344l207 1169l-19 260l199 48l10 -158l143 137h424l162 -194l-127 -723l-229 -195h-363l-98 80l-74 -424h-235zM424 309l115 -94h239l74 64l98 555l-51 63h-258l-135 -129z" />
    <glyph glyph-name="afii10083" unicode="&#x441;" horiz-adv-x="1083" 
d="M125 195l127 723l231 194h512l162 -194l-41 -242h-235l26 158l-51 63h-307l-76 -63l-98 -555l53 -64h330l237 72l31 -205l-276 -82h-461z" />
    <glyph glyph-name="afii10084" unicode="&#x442;" horiz-adv-x="1728" 
d="M135 0l146 825l-19 260l199 48l10 -158l143 137h340l86 -117l127 117h426l162 -194l-160 -918h-235l145 834l-51 63h-237l-91 -82l-143 -815h-235l143 815l-62 82h-188l-135 -129l-135 -768h-236z" />
    <glyph glyph-name="afii10085" unicode="&#x443;" horiz-adv-x="1067" 
d="M94 -344l37 215h215l64 53l39 76h-41l-232 1059l230 84l165 -764l7 -121h8l47 121l385 764l207 -72l-641 -1272l-168 -143h-322z" />
    <glyph glyph-name="afii10086" unicode="&#x444;" horiz-adv-x="1484" 
d="M125 193l129 727l225 192h183l131 -39l26 158l129 254l209 -74l-106 -209l-23 -129l143 39h183l159 -192l-129 -727l-225 -193h-182l-131 39l-27 -148l-129 -253l-207 73l107 209l20 119l-143 -39h-182zM375 279l53 -64h147l70 18l113 646l-62 18h-147l-76 -63zM881 233
l61 -18h148l73 64l99 555l-52 63h-147l-70 -18z" />
    <glyph glyph-name="afii10087" unicode="&#x445;" horiz-adv-x="1011" 
d="M16 98l422 455l-260 463l211 137l205 -367l12 -67h8l37 67l336 367l162 -137l-424 -463l262 -455l-209 -139l-209 363l-12 67h-8l-37 -67l-336 -363z" />
    <glyph glyph-name="afii10088" unicode="&#x446;" horiz-adv-x="1189" 
d="M125 195l162 917h235l-147 -833l53 -64h260l135 129l135 768h236l-145 -825l102 -148l-78 -446h-235l65 375l-47 69l-141 -137h-426z" />
    <glyph glyph-name="afii10089" unicode="&#x447;" horiz-adv-x="1085" 
d="M166 545l100 567h236l-84 -481l51 -64h281l69 19l92 526h236l-195 -1112h-235l67 391l-143 -39h-315z" />
    <glyph glyph-name="afii10090" unicode="&#x448;" horiz-adv-x="1728" 
d="M125 195l162 917h235l-147 -833l53 -64h238l90 82l143 815h236l-144 -815l62 -82h188l135 129l135 768h236l-145 -825l18 -260l-199 -47l-12 157l-141 -137h-340l-86 117l-127 -117h-426z" />
    <glyph glyph-name="afii10091" unicode="&#x449;" horiz-adv-x="1742" 
d="M125 195l162 917h235l-147 -833l53 -64h238l90 82l143 815h236l-144 -815l62 -82h188l135 129l135 768h236l-145 -825l102 -148l-78 -446h-235l65 375l-47 69l-141 -137h-340l-86 117l-127 -117h-426z" />
    <glyph glyph-name="afii10092" unicode="&#x44a;" horiz-adv-x="1255" 
d="M158 897l37 215h512l-64 -369h477l160 -194l-63 -354l-228 -195h-553l-133 160l131 737h-276zM553 244l25 -29h344l73 64l35 186l-53 63h-373z" />
    <glyph glyph-name="afii10093" unicode="&#x44b;" horiz-adv-x="1531" 
d="M119 160l168 952h235l-63 -369h477l160 -194l-64 -354l-227 -195h-553zM369 244l24 -29h344l74 64l35 186l-53 63h-373zM1163 0l195 1112h235l-194 -1112h-236z" />
    <glyph glyph-name="afii10094" unicode="&#x44c;" horiz-adv-x="1071" 
d="M119 160l168 952h235l-63 -369h477l160 -194l-64 -354l-227 -195h-553zM369 244l24 -29h344l74 64l35 186l-53 63h-373z" />
    <glyph glyph-name="afii10095" unicode="&#x44d;" horiz-adv-x="1083" 
d="M45 82l100 205l213 -72h330l74 64l31 165h-398l37 218h397l31 172l-51 63h-307l-76 -63l-27 -158h-235l41 242l231 194h512l162 -194l-127 -723l-229 -195h-461z" />
    <glyph glyph-name="afii10096" unicode="&#x44e;" horiz-adv-x="1509" 
d="M92 0l195 1112h235l-80 -453h164l45 256l230 197h495l160 -197l-127 -718l-227 -197h-496l-162 197l45 247h-163l-78 -444h-236zM774 279l53 -64h287l74 64l98 555l-51 63h-287l-76 -63z" />
    <glyph glyph-name="afii10097" unicode="&#x44f;" horiz-adv-x="1103" 
d="M68 156l180 86l129 125l53 36l-2 7l-51 -21h-70l-143 172l65 379l205 172h731l-194 -1112h-236l68 389h-107l-325 -317l-238 -113zM416 659l47 -55h379l51 293h-379l-65 -55z" />
    <glyph glyph-name="afii10071" unicode="&#x451;" horiz-adv-x="1095" 
d="M125 195l127 723l231 194h512l162 -194l-53 -314l-207 -174h-494l-28 -151l53 -64h320l241 72l29 -205l-277 -82h-452zM440 645h381l64 53l22 136l-51 63h-307l-76 -63zM459 1315l18 112l90 76h113l61 -76l-18 -112l-90 -76h-113zM850 1315l18 112l90 76h113l62 -76
l-19 -112l-90 -76h-113z" />
    <glyph glyph-name="afii10099" unicode="&#x452;" horiz-adv-x="1181" 
d="M152 977l36 215h185l-33 209l233 74l41 -254l-6 -29h297l-37 -215h-297l-30 -174l123 80h362l164 -195l-94 -528l-176 -197l-316 -104l-37 204l234 78l71 80l68 383l-53 64h-240l-147 -95l-101 -573h-235l172 977h-184z" />
    <glyph glyph-name="afii10100" unicode="&#x453;" horiz-adv-x="999" 
d="M74 195l41 233l100 127l567 184l37 47l8 45l-53 66h-270l-248 -78l-33 207l273 86h422l159 -194l-41 -234l-100 -127l-565 -184l-37 -47l-8 -45l53 -66h270l248 78l33 -207l-273 -86h-421zM573 1225l267 348h225l-307 -348h-185z" />
    <glyph glyph-name="afii10101" unicode="&#x454;" horiz-adv-x="1083" 
d="M125 195l127 723l231 194h512l162 -194l-41 -242h-235l26 158l-51 63h-307l-76 -63l-31 -172h398l-37 -218h-397l-31 -165l53 -64h330l237 72l31 -205l-276 -82h-461z" />
    <glyph glyph-name="afii10102" unicode="&#x455;" horiz-adv-x="1026" 
d="M55 86l107 207l219 -78h285l77 66l9 47l-21 47l-502 184l-55 127l39 232l229 194h439l243 -86l-106 -207l-219 78h-287l-78 -66l-8 -43l20 -47l502 -184l58 -127l-43 -235l-228 -195h-436z" />
    <glyph glyph-name="afii10103" unicode="&#x456;" horiz-adv-x="524" 
d="M141 0l150 850l-33 209l234 74l38 -254l-153 -879h-236zM358 1315l19 112l90 76h113l61 -76l-18 -112l-91 -76h-112z" />
    <glyph glyph-name="afii10104" unicode="&#x457;" horiz-adv-x="524" 
d="M141 0l150 850l-33 209l234 74l38 -254l-153 -879h-236zM164 1315l18 112l90 76h113l61 -76l-18 -112l-90 -76h-113zM555 1315l18 112l91 76h112l62 -76l-19 -112l-90 -76h-113z" />
    <glyph glyph-name="afii10105" unicode="&#x458;" horiz-adv-x="520" 
d="M-203 -172l266 90l72 80l152 852l-33 209l233 74l39 -254l-166 -942l-176 -197l-354 -119zM354 1315l19 112l90 76h112l62 -76l-19 -112l-90 -76h-112z" />
    <glyph glyph-name="afii10106" unicode="&#x459;" horiz-adv-x="1656" 
d="M10 176l144 49l82 72l235 815h709l-68 -389h406l159 -195l-59 -333l-227 -195h-482l-133 160l131 737h-256l-205 -700l-167 -150l-230 -78zM1026 244l25 -29h272l74 64l30 165l-53 64h-301z" />
    <glyph glyph-name="afii10107" unicode="&#x45a;" horiz-adv-x="1667" 
d="M141 0l152 860l-33 209l234 74l38 -254l-34 -197h372l74 420h236l-74 -420h416l159 -194l-53 -303l-227 -195h-492l-133 160l58 317h-373l-84 -477h-236zM1026 244l25 -29h282l74 64l25 135l-52 63h-311z" />
    <glyph glyph-name="afii10108" unicode="&#x45b;" horiz-adv-x="1181" 
d="M152 977l36 215h185l-33 209l233 74l41 -254l-6 -29h297l-37 -215h-297l-30 -174l123 80h362l164 -195l-121 -688h-235l106 604l-53 64h-240l-147 -95l-101 -573h-235l172 977h-184z" />
    <glyph glyph-name="afii10109" unicode="&#x45c;" horiz-adv-x="1021" 
d="M92 0l195 1112h235l-80 -453h86l326 381l238 113l67 -199l-164 -77l-276 -324l164 -317l135 -78l-137 -199l-197 113l-192 372h-86l-78 -444h-236zM582 1153l266 348h225l-307 -348h-184z" />
    <glyph glyph-name="afii10110" unicode="&#x45e;" horiz-adv-x="1067" 
d="M94 -344l37 215h215l64 53l39 76h-41l-232 1059l230 84l165 -764l7 -121h8l47 121l385 764l207 -72l-641 -1272l-168 -143h-322zM403 1374l31 178h195l-19 -108l29 -35h260l41 35l18 108h195l-31 -178l-178 -149h-416z" />
    <glyph glyph-name="afii10193" unicode="&#x45f;" horiz-adv-x="1130" 
d="M92 0l195 1112h235l-157 -897h434l157 897h236l-195 -1112h-333l-56 -307h-235l55 307h-336z" />
    <glyph glyph-name="afii10050" unicode="&#x490;" horiz-adv-x="1079" 
d="M123 0l256 1454h680l33 184h235l-72 -399h-680l-217 -1239h-235z" />
    <glyph glyph-name="afii10098" unicode="&#x491;" horiz-adv-x="911" 
d="M92 0l195 1112h542l29 164h236l-66 -381h-541l-157 -895h-238z" />
    <glyph glyph-name="uni2000" unicode="&#x2000;" horiz-adv-x="987" 
 />
    <glyph glyph-name="uni2001" unicode="&#x2001;" horiz-adv-x="1974" 
 />
    <glyph glyph-name="uni2002" unicode="&#x2002;" horiz-adv-x="987" 
 />
    <glyph glyph-name="uni2003" unicode="&#x2003;" horiz-adv-x="1974" 
 />
    <glyph glyph-name="uni2004" unicode="&#x2004;" horiz-adv-x="658" 
 />
    <glyph glyph-name="uni2005" unicode="&#x2005;" horiz-adv-x="493" 
 />
    <glyph glyph-name="uni2006" unicode="&#x2006;" horiz-adv-x="329" 
 />
    <glyph glyph-name="uni2007" unicode="&#x2007;" horiz-adv-x="329" 
 />
    <glyph glyph-name="uni2008" unicode="&#x2008;" horiz-adv-x="246" 
 />
    <glyph glyph-name="uni2009" unicode="&#x2009;" horiz-adv-x="394" 
 />
    <glyph glyph-name="uni200A" unicode="&#x200a;" horiz-adv-x="109" 
 />
    <glyph glyph-name="uni2010" unicode="&#x2010;" horiz-adv-x="983" 
d="M125 598l39 215h901l-39 -215h-901z" />
    <glyph glyph-name="uni2011" unicode="&#x2011;" horiz-adv-x="983" 
d="M125 598l39 215h901l-39 -215h-901z" />
    <glyph glyph-name="figuredash" unicode="&#x2012;" horiz-adv-x="983" 
d="M125 598l39 215h901l-39 -215h-901z" />
    <glyph glyph-name="endash" unicode="&#x2013;" horiz-adv-x="1118" 
d="M111 516l39 217h1036l-39 -217h-1036z" />
    <glyph glyph-name="emdash" unicode="&#x2014;" horiz-adv-x="1499" 
d="M111 516l39 217h1417l-39 -217h-1417z" />
    <glyph glyph-name="quoteleft" unicode="&#x2018;" horiz-adv-x="389" 
d="M137 901l303 553h164l-221 -553h-246z" />
    <glyph glyph-name="quoteright" unicode="&#x2019;" horiz-adv-x="389" 
d="M158 901l221 553h246l-303 -553h-164z" />
    <glyph glyph-name="quotesinglbase" unicode="&#x201a;" horiz-adv-x="389" 
d="M-63 -369l217 553h245l-301 -553h-161z" />
    <glyph glyph-name="quotedblleft" unicode="&#x201c;" 
d="M137 901l303 553h164l-221 -553h-246zM485 901l303 553h164l-221 -553h-246z" />
    <glyph glyph-name="quotedblright" unicode="&#x201d;" 
d="M158 901l221 553h246l-303 -553h-164zM506 901l221 553h246l-303 -553h-164z" />
    <glyph glyph-name="quotedblbase" unicode="&#x201e;" 
d="M-63 -369l217 553h245l-301 -553h-161zM283 -369l219 553h246l-302 -553h-163z" />
    <glyph glyph-name="bullet" unicode="&#x2022;" horiz-adv-x="819" 
d="M166 594l43 246l229 194h267l159 -194l-43 -246l-229 -195h-266z" />
    <glyph glyph-name="ellipsis" unicode="&#x2026;" horiz-adv-x="1161" 
d="M47 45l21 113l90 75h112l62 -75l-21 -113l-88 -76h-112zM434 45l21 113l90 75h112l62 -75l-21 -113l-88 -76h-112zM821 45l21 113l90 75h112l62 -75l-21 -113l-88 -76h-112z" />
    <glyph glyph-name="uni202F" unicode="&#x202f;" horiz-adv-x="394" 
 />
    <glyph glyph-name="guilsinglleft" unicode="&#x2039;" 
d="M104 477l21 123l612 475l119 -164l-479 -372l348 -373l-176 -164z" />
    <glyph glyph-name="guilsinglright" unicode="&#x203a;" 
d="M29 166l479 373l-348 372l176 164l444 -475l-20 -123l-613 -475z" />
    <glyph glyph-name="uni205F" unicode="&#x205f;" horiz-adv-x="493" 
 />
    <glyph glyph-name="Euro" unicode="&#x20ac;" horiz-adv-x="1241" 
d="M72 526l26 154h123l17 94h-103l27 154h102l51 289l281 237h559l195 -237l-45 -254h-236l31 170l-88 106h-350l-125 -106l-37 -205h512l-27 -154h-512l-16 -94h491l-26 -154h-492l-37 -204l88 -107h373l213 180l133 -159l-276 -236h-584l-197 238l52 288h-123z" />
    <glyph glyph-name="trademark" unicode="&#x2122;" horiz-adv-x="1650" 
d="M197 1239l39 215h665l-39 -215h-215l-88 -502h-235l88 502h-215zM858 737l127 717h234l112 -358l240 358h233l-127 -717h-215l51 287l43 125h-8l-57 -119l-117 -174h-172l-55 174l-17 119h-8l2 -125l-51 -287h-215z" />
    <glyph glyph-name="uniE000" unicode="&#xe000;" horiz-adv-x="1157" 
d="M0 0v1157h1157v-1157h-1157z" />
    </font>
</defs>
</svg>
