<?xml version="1.0" standalone="no"?>
<!DOCTYPE svg PUBLIC "-//W3C//DTD SVG 1.1//EN" "http://www.w3.org/Graphics/SVG/1.1/DTD/svg11.dtd" >
<svg xmlns="http://www.w3.org/2000/svg" xmlns:xlink="http://www.w3.org/1999/xlink" version="1.1">
<metadata>
Created by FontForge 20161003 at Tue May 30 17:46:56 2017
 By www-data
Copyright (c) 2009 by Oleg Zhuravlev, Gladkikh Ivan. All rights reserved.
</metadata>
<defs>
<font id="BenderLightItalic" horiz-adv-x="1015" >
  <font-face 
    font-family="BenderLightItalic"
    font-weight="300"
    font-style="italic"
    font-stretch="normal"
    units-per-em="2048"
    panose-1="2 0 5 3 0 0 0 9 0 4"
    ascent="1638"
    descent="-410"
    x-height="1090"
    cap-height="1434"
    bbox="-195 -369 2019 1874"
    underline-thickness="102"
    underline-position="-306"
    slope="-12"
    unicode-range="U+0020-E000"
  />
<missing-glyph horiz-adv-x="2048" 
 />
    <glyph glyph-name=".notdef" horiz-adv-x="2048" 
 />
    <glyph glyph-name="glyph1" horiz-adv-x="0" 
 />
    <glyph glyph-name="glyph2" horiz-adv-x="2048" 
 />
    <glyph glyph-name="space" unicode=" " horiz-adv-x="614" 
 />
    <glyph glyph-name="exclam" unicode="!" horiz-adv-x="450" 
d="M145 23l11 57l39 33h57l27 -33l-11 -57l-37 -33h-57zM217 246l209 1188h61l-208 -1188h-62z" />
    <glyph glyph-name="quotedbl" unicode="&#x22;" horiz-adv-x="432" 
d="M217 952l76 482h67l-96 -482h-47zM459 952l76 482h67l-96 -482h-47z" />
    <glyph glyph-name="numbersign" unicode="#" horiz-adv-x="1511" 
d="M55 430l11 62h348l256 450h-316l11 62h340l245 430h62l-246 -430h516l246 430h61l-246 -430h324l-10 -62h-348l-258 -450h317l-10 -62h-342l-244 -430h-61l245 430h-518l-243 -430h-62l246 430h-324zM473 492h518l256 450h-516z" />
    <glyph glyph-name="dollar" unicode="$" horiz-adv-x="1122" 
d="M84 55l29 58l145 -52h557l180 152l43 242l-24 69l-746 389l-30 97l43 235l221 189h260l24 143h62l-25 -143h277l147 -54l-28 -57l-144 49h-559l-178 -151l-35 -195l23 -70l741 -385l35 -100l-49 -283l-224 -188h-258l-26 -143h-62l27 143h-268z" />
    <glyph glyph-name="percent" unicode="%" horiz-adv-x="1376" 
d="M100 25l1344 1419l41 -37l-1344 -1419zM219 1020l47 266l174 148h267l120 -148l-47 -266l-172 -148h-266zM285 1044l92 -110h217l129 110l39 218l-90 110h-217l-131 -110zM758 147l47 267l174 147h266l121 -147l-47 -267l-172 -147h-266zM823 172l92 -111h218l129 111
l38 217l-90 111h-217l-131 -111z" />
    <glyph glyph-name="ampersand" unicode="&#x26;" horiz-adv-x="1183" 
d="M74 188l49 287l387 326l-152 213l41 231l224 189h426l157 -191l-32 -178h-62l27 154l-125 153h-377l-182 -153l-31 -183l532 -745l228 192l35 -43l-230 -194l156 -217l-53 -41l-154 215l-240 -203h-467zM139 215l127 -154h418l221 187l-362 506l-363 -305z" />
    <glyph glyph-name="quotesingle" unicode="'" horiz-adv-x="190" 
d="M217 952l76 482h67l-96 -482h-47z" />
    <glyph glyph-name="parenleft" unicode="(" horiz-adv-x="432" 
d="M47 -74l219 1245l172 211l211 72l8 -57l-182 -58l-147 -176l-217 -1229l86 -176l161 -57l-28 -57l-187 71z" />
    <glyph glyph-name="parenright" unicode=")" horiz-adv-x="432" 
d="M-72 -299l181 57l147 176l217 1229l-86 176l-162 58l29 57l186 -72l95 -211l-220 -1245l-170 -211l-208 -71z" />
    <glyph glyph-name="asterisk" unicode="*" horiz-adv-x="774" 
d="M203 922l291 155l-236 156l39 53l238 -156l53 304h61l-53 -304l291 156l22 -53l-293 -156l238 -155l-41 -54l-235 156l-54 -299h-61l53 299l-293 -156z" />
    <glyph glyph-name="plus" unicode="+" horiz-adv-x="1003" 
d="M139 676l11 61h430l75 430h62l-76 -430h430l-10 -61h-430l-76 -430h-61l75 430h-430z" />
    <glyph glyph-name="comma" unicode="," horiz-adv-x="245" 
d="M-84 -369l197 492h92l-248 -492h-41z" />
    <glyph glyph-name="hyphen" unicode="-" horiz-adv-x="962" 
d="M139 676l11 61h880l-10 -61h-881z" />
    <glyph glyph-name="period" unicode="." horiz-adv-x="286" 
d="M63 23l11 57l39 33h57l27 -33l-11 -57l-36 -33h-58z" />
    <glyph glyph-name="slash" unicode="/" horiz-adv-x="983" 
d="M-18 20l1183 1424l45 -31l-1183 -1425z" />
    <glyph glyph-name="zero" unicode="0" horiz-adv-x="1204" 
d="M135 188l187 1057l223 189h579l156 -189l-186 -1057l-224 -188h-579zM201 213l39 -49l899 1149l-52 59h-528l-182 -153zM276 121l52 -60h528l180 154l178 1006l-38 49z" />
    <glyph glyph-name="one" unicode="1" horiz-adv-x="700" 
d="M20 0l11 61h278l232 1313l-269 -227l-34 43l303 258h73l-243 -1387h278l-10 -61h-619z" />
    <glyph glyph-name="two" unicode="2" horiz-adv-x="1083" 
d="M20 0l37 219l830 520l190 162l58 320l-127 151h-566l-163 -49l-9 57l179 54h595l156 -191l-65 -364l-217 -185l-803 -506l-23 -127h899l-10 -61h-961z" />
    <glyph glyph-name="three" unicode="3" horiz-adv-x="1060" 
d="M16 55l29 58l145 -52h566l178 154l67 383l-124 154h-459l16 92l703 528h-895l10 62h958l-14 -84l-711 -537h428l154 -188l-76 -437l-223 -188h-594z" />
    <glyph glyph-name="four" unicode="4" horiz-adv-x="1128" 
d="M68 385l22 131l1010 932h71l-176 -1002h170l-10 -61h-170l-67 -385h-62l68 385h-856zM139 446h795l162 920l-949 -874z" />
    <glyph glyph-name="five" unicode="5" horiz-adv-x="1101" 
d="M90 55l29 58l143 -52h533l180 154l69 389l-126 154h-695l119 676h909l-10 -62h-848l-98 -553h659l156 -188l-78 -443l-223 -188h-561z" />
    <glyph glyph-name="six" unicode="6" horiz-adv-x="1165" 
d="M135 190l187 1053l221 191h598l147 -54l-31 -57l-141 49h-557l-180 -151l-74 -418l103 31h610l158 -195l-80 -451l-224 -188h-579zM201 215l127 -154h530l180 154l70 399l-125 158h-582l-108 -33z" />
    <glyph glyph-name="seven" unicode="7" horiz-adv-x="1021" 
d="M242 1372l10 62h960l-36 -211l-648 -856l-63 -367h-62l66 383l647 858l25 131h-899z" />
    <glyph glyph-name="eight" unicode="8" horiz-adv-x="1206" 
d="M135 188l72 408l188 160l-125 147l62 342l221 189h571l148 -189l-62 -342l-174 -147l131 -160l-71 -408l-224 -188h-579zM201 215l127 -154h530l180 154l64 356l-127 154h-531l-180 -154zM338 930l117 -144h530l170 144l51 291l-127 151h-510l-180 -151z" />
    <glyph glyph-name="nine" unicode="9" horiz-adv-x="1165" 
d="M86 53l31 58l143 -50h557l180 152l74 418l-104 -31h-611l-155 195l80 450l223 189h579l158 -191l-186 -1053l-221 -190h-598zM266 819l125 -157h582l108 32l93 525l-125 153h-531l-182 -153z" />
    <glyph glyph-name="colon" unicode=":" horiz-adv-x="286" 
d="M63 23l11 57l39 33h57l27 -33l-11 -57l-36 -33h-58zM213 862l10 58l37 32h57l29 -32l-10 -58l-39 -33h-57z" />
    <glyph glyph-name="semicolon" unicode=";" horiz-adv-x="266" 
d="M-84 -369l197 492h92l-248 -492h-41zM213 862l10 58l37 32h57l29 -32l-10 -58l-39 -33h-57z" />
    <glyph glyph-name="less" unicode="&#x3c;" horiz-adv-x="677" 
d="M109 510l10 57l665 480l29 -46l-641 -462l477 -463l-45 -45z" />
    <glyph glyph-name="equal" unicode="=" horiz-adv-x="962" 
d="M106 492l11 61h880l-10 -61h-881zM172 860l10 62h881l-10 -62h-881z" />
    <glyph glyph-name="greater" unicode="&#x3e;" horiz-adv-x="677" 
d="M12 76l641 463l-477 462l45 46l494 -480l-10 -57l-664 -479z" />
    <glyph glyph-name="question" unicode="?" horiz-adv-x="1064" 
d="M195 1231l241 203h590l156 -189l-68 -385l-526 -362l-43 -252h-62l49 280l525 363l59 332l-125 151h-542l-218 -184zM412 23l10 57l39 33h57l27 -33l-10 -57l-37 -33h-58z" />
    <glyph glyph-name="at" unicode="@" horiz-adv-x="1767" 
d="M121 -4l213 1208l295 230h973l213 -230l-156 -882l-176 -148h-269l-16 137l-170 -145h-369l-124 147l34 193l176 147h502l35 199l-94 111h-334l-160 -52l-8 58l176 55h363l123 -147l-93 -525l15 -116h200l132 110l147 830l-182 196h-924l-252 -196l-203 -1151l183 -197
h929l-12 -61h-954zM602 338l92 -111h320l184 156l37 209h-477l-131 -111z" />
    <glyph glyph-name="A" unicode="A" horiz-adv-x="1142" 
d="M20 10l721 1424h123l217 -1424l-59 -20l-74 481h-631l-241 -481zM348 532h590l-127 840h-37z" />
    <glyph glyph-name="B" unicode="B" horiz-adv-x="1226" 
d="M143 0l252 1434h768l123 -150l-72 -410l-137 -116l131 -162l-71 -406l-224 -190h-770zM215 61h684l180 152l64 360l-127 154h-684zM342 788h684l131 111l64 363l-91 110h-684z" />
    <glyph glyph-name="C" unicode="C" horiz-adv-x="1144" 
d="M135 190l187 1053l223 191h579l158 -191l-39 -213h-61l32 189l-124 153h-531l-182 -153l-176 -1004l127 -154h555l164 140l34 -43l-184 -158h-604z" />
    <glyph glyph-name="D" unicode="D" horiz-adv-x="1249" 
d="M143 0l252 1434h772l156 -193l-184 -1048l-224 -193h-772zM215 61h686l180 158l176 995l-124 158h-687z" />
    <glyph glyph-name="E" unicode="E" horiz-adv-x="1079" 
d="M143 0l252 1434h875l-10 -62h-814l-104 -584h727l-10 -61h-727l-117 -666h813l-10 -61h-875z" />
    <glyph glyph-name="F" unicode="F" horiz-adv-x="1048" 
d="M143 0l252 1434h865l-11 -62h-803l-106 -604h717l-13 -61h-716l-123 -707h-62z" />
    <glyph glyph-name="G" unicode="G" horiz-adv-x="1206" 
d="M135 188l187 1057l221 189h583l156 -189l-39 -215h-61l35 191l-127 151h-531l-180 -151l-178 -1008l127 -152h530l180 152l78 442h-383l10 62h445l-92 -529l-222 -188h-583z" />
    <glyph glyph-name="H" unicode="H" horiz-adv-x="1288" 
d="M143 0l252 1434h62l-113 -643h838l112 643h62l-252 -1434h-62l127 729h-837l-127 -729h-62z" />
    <glyph glyph-name="I" unicode="I" horiz-adv-x="741" 
d="M41 0l10 61h279l231 1311h-278l10 62h618l-10 -62h-278l-232 -1311h279l-11 -61h-618z" />
    <glyph glyph-name="J" unicode="J" horiz-adv-x="1030" 
d="M14 203l52 43l151 -185h445l180 154l205 1157h-383l10 62h444l-219 -1244l-223 -190h-494z" />
    <glyph glyph-name="K" unicode="K" horiz-adv-x="1116" 
d="M143 0l252 1434h62l-148 -840l998 850l34 -43l-684 -584l439 -792l-56 -35l-434 784l-313 -266l-88 -508h-62z" />
    <glyph glyph-name="L" unicode="L" horiz-adv-x="1019" 
d="M143 0l252 1434h62l-242 -1373h795l-11 -61h-856z" />
    <glyph glyph-name="M" unicode="M" horiz-adv-x="1675" 
d="M143 0l252 1434h86l410 -988h8l758 988h86l-252 -1434h-61l239 1364l-749 -979h-70l-406 979l-239 -1364h-62z" />
    <glyph glyph-name="N" unicode="N" horiz-adv-x="1290" 
d="M143 0l252 1434h92l568 -1364l241 1364h62l-252 -1434h-92l-570 1364l-239 -1364h-62z" />
    <glyph glyph-name="O" unicode="O" horiz-adv-x="1267" 
d="M135 190l187 1053l241 191h604l176 -191l-186 -1053l-242 -190h-604zM201 217l143 -156h559l197 156l176 1000l-141 155h-560l-198 -155z" />
    <glyph glyph-name="P" unicode="P" horiz-adv-x="1206" 
d="M143 0l252 1434h770l158 -189l-82 -457l-223 -188h-709l-104 -600h-62zM319 662h685l184 153l69 404l-127 153h-684z" />
    <glyph glyph-name="Q" unicode="Q" horiz-adv-x="1267" 
d="M135 190l187 1053l241 191h604l176 -191l-186 -1053l-242 -190h-270l-51 -283h-62l52 283h-273zM201 217l143 -156h250l20 123h62l-21 -123h248l197 156l176 1000l-141 155h-560l-198 -155z" />
    <glyph glyph-name="R" unicode="R" horiz-adv-x="1220" 
d="M143 0l252 1434h770l158 -189l-80 -454l-225 -189h-367l471 -571l-51 -43l-506 614h-256l-104 -602h-62zM322 664h684l182 153l69 402l-127 153h-684z" />
    <glyph glyph-name="S" unicode="S" horiz-adv-x="1122" 
d="M84 55l29 58l145 -52h557l180 152l43 242l-24 69l-746 389l-30 97l43 235l221 189h598l147 -54l-28 -57l-144 49h-559l-178 -151l-35 -195l23 -70l741 -385l35 -100l-49 -283l-224 -188h-587z" />
    <glyph glyph-name="T" unicode="T" horiz-adv-x="1024" 
d="M221 1372l10 62h1024l-10 -62h-481l-242 -1372h-61l241 1372h-481z" />
    <glyph glyph-name="U" unicode="U" horiz-adv-x="1247" 
d="M156 188l219 1246h61l-215 -1219l129 -154h527l182 154l215 1219h61l-219 -1246l-223 -188h-580z" />
    <glyph glyph-name="V" unicode="V" horiz-adv-x="1150" 
d="M270 1425l62 19l215 -1383h37l702 1383l53 -19l-723 -1425h-122z" />
    <glyph glyph-name="W" unicode="W" horiz-adv-x="1830" 
d="M270 1427l62 17l151 -1376l611 1323h90l143 -1323l639 1376l53 -17l-659 -1427h-88l-146 1323l-608 -1323h-88z" />
    <glyph glyph-name="X" unicode="X" horiz-adv-x="1105" 
d="M27 25l596 690l-355 696l56 33l344 -674l581 674l43 -33l-600 -696l355 -690l-56 -35l-344 669l-577 -669z" />
    <glyph glyph-name="Y" unicode="Y" horiz-adv-x="1114" 
d="M248 1413l59 31l338 -821l629 821l47 -31l-657 -860l-97 -553h-61l96 553z" />
    <glyph glyph-name="Z" unicode="Z" horiz-adv-x="1042" 
d="M20 0l13 80l1128 1292h-899l10 62h961l-14 -84l-1127 -1289h899l-10 -61h-961z" />
    <glyph glyph-name="bracketleft" unicode="[" horiz-adv-x="385" 
d="M0 -344l313 1778h303l-10 -62h-241l-293 -1655h241l-10 -61h-303z" />
    <glyph glyph-name="backslash" unicode="\" horiz-adv-x="983" 
d="M227 1413l58 31l680 -1424l-58 -32z" />
    <glyph glyph-name="bracketright" unicode="]" horiz-adv-x="385" 
d="M-80 -344l10 61h240l293 1655h-242l10 62h304l-314 -1778h-301z" />
    <glyph glyph-name="asciicircum" unicode="^" horiz-adv-x="901" 
d="M129 854l524 580h58l319 -580l-55 -35l-303 553l-500 -553z" />
    <glyph glyph-name="underscore" unicode="_" horiz-adv-x="880" 
d="M-31 -61l11 61h880l-12 -61h-879z" />
    <glyph glyph-name="grave" unicode="`" horiz-adv-x="348" 
d="M211 1434h100l209 -451h-53z" />
    <glyph glyph-name="a" unicode="a" horiz-adv-x="1079" 
d="M106 147l142 797l174 148h524l125 -148l-131 -735l16 -203l-59 -14l-14 158l-172 -150h-480zM172 172l94 -111h430l185 158l125 701l-95 110h-475l-131 -110z" />
    <glyph glyph-name="b" unicode="b" horiz-adv-x="1105" 
d="M156 147l198 1123l-22 151l61 21l23 -168l-54 -303l140 121h506l120 -148l-141 -799l-170 -145h-538zM221 170l92 -109h488l129 109l131 748l-90 112h-455l-168 -143z" />
    <glyph glyph-name="c" unicode="c" 
d="M127 147l141 797l170 148h541l121 -148l-39 -215h-62l35 191l-90 110h-491l-127 -110l-133 -748l90 -111h483l162 50l8 -58l-174 -53h-514z" />
    <glyph glyph-name="d" unicode="d" horiz-adv-x="1107" 
d="M127 145l141 801l170 146h539l72 -86l75 428h62l-217 -1225l16 -203l-59 -14l-15 158l-172 -150h-491zM193 170l90 -109h442l184 158l125 701l-92 110h-489l-127 -108z" />
    <glyph glyph-name="e" unicode="e" horiz-adv-x="1036" 
d="M127 147l141 797l172 148h537l123 -148l-53 -299l-175 -147h-622l-57 -326l92 -111h481l162 50l8 -58l-174 -53h-512zM262 559h598l129 111l45 250l-92 110h-487l-129 -110z" />
    <glyph glyph-name="f" unicode="f" horiz-adv-x="788" 
d="M123 -330l76 152l190 1079h-211l10 62h211l58 325l174 146h323l158 -56l-31 -57l-141 51h-295l-131 -108l-53 -301h424l-11 -62h-423l-191 -1083l-84 -168z" />
    <glyph glyph-name="g" unicode="g" horiz-adv-x="1077" 
d="M49 -291l29 58l145 -50h490l129 111l51 293l-139 -121h-506l-121 147l141 799l170 146h539l123 -148l-201 -1141l-172 -147h-520zM193 174l92 -113h454l168 144l127 717l-92 108h-487l-129 -108z" />
    <glyph glyph-name="h" unicode="h" horiz-adv-x="1107" 
d="M133 0l223 1270l-24 151l61 21l25 -168l-53 -303l139 121h506l120 -148l-165 -944h-62l160 918l-90 112h-453l-172 -147l-153 -883h-62z" />
    <glyph glyph-name="i" unicode="i" horiz-adv-x="366" 
d="M131 0l164 938l-21 162l62 18l22 -176l-165 -942h-62zM332 1313l8 57l39 33h57l27 -33l-8 -57l-39 -33h-58z" />
    <glyph glyph-name="j" unicode="j" horiz-adv-x="380" 
d="M-195 -297l224 74l96 110l184 1051l-20 162l61 18l23 -176l-189 -1063l-116 -145l-254 -88zM346 1313l8 57l39 33h58l26 -33l-8 -57l-39 -33h-57z" />
    <glyph glyph-name="k" unicode="k" horiz-adv-x="997" 
d="M131 0l223 1270l-22 151l61 21l23 -168l-135 -774l829 602l31 -47l-586 -426l401 -602l-55 -39l-401 602l-234 -170l-73 -420h-62z" />
    <glyph glyph-name="l" unicode="l" horiz-adv-x="335" 
d="M131 0l223 1270l-22 151l61 21l23 -168l-223 -1274h-62z" />
    <glyph glyph-name="m" unicode="m" horiz-adv-x="1669" 
d="M133 0l154 883l-15 202l60 15l14 -158l172 150h385l96 -117l136 117h434l123 -148l-166 -944h-62l160 918l-92 112h-381l-129 -110l-162 -920h-61l159 918l-92 112h-334l-184 -158l-153 -872h-62z" />
    <glyph glyph-name="n" unicode="n" horiz-adv-x="1110" 
d="M133 0l154 883l-15 202l60 15l14 -158l172 150h492l123 -148l-166 -944h-62l160 918l-92 112h-441l-184 -158l-153 -872h-62z" />
    <glyph glyph-name="o" unicode="o" horiz-adv-x="1087" 
d="M127 150l141 792l172 150h547l123 -150l-141 -792l-172 -150h-547zM193 172l92 -111h497l129 111l133 748l-92 110h-497l-129 -110z" />
    <glyph glyph-name="p" unicode="p" horiz-adv-x="1107" 
d="M72 -344l215 1227l-15 202l60 15l14 -158l172 150h492l120 -146l-141 -801l-170 -145h-538l-72 86l-76 -430h-61zM223 172l92 -111h490l127 109l133 752l-90 108h-443l-184 -158z" />
    <glyph glyph-name="q" unicode="q" horiz-adv-x="1085" 
d="M127 147l141 799l170 146h539l123 -148l-199 -1122l23 -152l-62 -20l-22 168l53 303l-139 -121h-506zM193 174l92 -113h454l168 144l127 717l-92 108h-487l-129 -108z" />
    <glyph glyph-name="r" unicode="r" horiz-adv-x="884" 
d="M133 0l154 883l-15 202l60 15l14 -158l172 150h373l137 -162l-51 -43l-119 143h-326l-184 -158l-153 -872h-62z" />
    <glyph glyph-name="s" unicode="s" horiz-adv-x="956" 
d="M53 53l29 58l143 -50h486l131 113l30 164l-24 68l-637 258l-37 100l33 180l172 148h514l158 -56l-29 -57l-145 51h-482l-133 -112l-22 -140l22 -67l637 -258l37 -99l-37 -207l-172 -147h-516z" />
    <glyph glyph-name="t" unicode="t" horiz-adv-x="911" 
d="M197 1010l12 61h231l54 301h61l-53 -301h424l-13 -61h-424l-147 -838l92 -111h295l162 50l8 -58l-174 -53h-326l-123 147l152 863h-231z" />
    <glyph glyph-name="u" unicode="u" horiz-adv-x="1110" 
d="M127 147l166 945h61l-161 -918l94 -113h440l184 158l154 873h61l-155 -883l16 -203l-59 -14l-15 158l-172 -150h-491z" />
    <glyph glyph-name="v" unicode="v" horiz-adv-x="970" 
d="M188 1079l62 23l223 -1045l592 1045l53 -23l-610 -1079h-86z" />
    <glyph glyph-name="w" unicode="w" horiz-adv-x="1441" 
d="M190 1085l60 17l121 -1041l471 986h86l123 -986l485 1041l55 -17l-508 -1085h-86l-125 985l-469 -985h-86z" />
    <glyph glyph-name="x" unicode="x" horiz-adv-x="897" 
d="M4 25l483 522l-301 518l56 37l290 -504l467 504l43 -37l-481 -518l299 -522l-57 -37l-289 506l-469 -506z" />
    <glyph glyph-name="y" unicode="y" horiz-adv-x="972" 
d="M100 -344l11 61h190l84 72l111 211h-64l-244 1075l62 23l233 -1037h43l541 1037l53 -21l-686 -1317l-123 -104h-211z" />
    <glyph glyph-name="z" unicode="z" horiz-adv-x="913" 
d="M20 0l15 82l936 946h-770l10 62h831l-14 -84l-936 -945h770l-10 -61h-832z" />
    <glyph glyph-name="braceleft" unicode="{" horiz-adv-x="571" 
d="M111 522l10 53l209 158l82 469l163 203l218 51l4 -57l-195 -47l-131 -162l-86 -483l-207 -158l152 -158l-84 -483l73 -162l179 -47l-25 -57l-199 51l-92 203l82 469z" />
    <glyph glyph-name="bar" unicode="|" horiz-adv-x="389" 
d="M82 -344l313 1778h62l-314 -1778h-61z" />
    <glyph glyph-name="braceright" unicode="}" horiz-adv-x="571" 
d="M-72 -301l193 47l131 162l84 483l209 158l-154 158l86 483l-74 162l-178 47l25 57l196 -51l95 -203l-82 -469l151 -158l-10 -53l-207 -157l-82 -469l-166 -203l-213 -51z" />
    <glyph glyph-name="asciitilde" unicode="~" horiz-adv-x="1230" 
d="M158 782l51 43l151 -184h240l223 190h289l168 -202l-51 -43l-152 184h-239l-226 -190h-288z" />
    <glyph glyph-name="uni00A0" unicode="&#xa0;" horiz-adv-x="614" 
 />
    <glyph glyph-name="cent" unicode="&#xa2;" 
d="M127 147l141 797l170 148h254l27 143h61l-26 -143h225l121 -148l-39 -215h-62l35 191l-90 110h-491l-127 -110l-133 -748l90 -111h483l162 50l8 -58l-174 -53h-199l-26 -143h-62l27 143h-254z" />
    <glyph glyph-name="yen" unicode="&#xa5;" horiz-adv-x="1114" 
d="M193 317l10 62h368l25 143h-369l13 62h350l-342 829l59 31l338 -821l629 821l47 -31l-633 -829h350l-12 -62h-369l-24 -143h368l-10 -62h-368l-56 -317h-61l55 317h-368z" />
    <glyph glyph-name="copyright" unicode="&#xa9;" horiz-adv-x="1726" 
d="M141 231l172 971l295 232h973l213 -232l-172 -971l-293 -231h-973zM209 264l188 -203h912l258 203l159 905l-186 203h-911l-260 -203zM569 444l97 545l170 148h401l121 -148l-27 -145h-61l22 121l-90 110h-352l-127 -110l-88 -496l88 -111h342l164 50l8 -58l-176 -53
h-373z" />
    <glyph glyph-name="guillemotleft" unicode="&#xab;" horiz-adv-x="1048" 
d="M115 539l682 508l30 -46l-622 -462l459 -463l-48 -45zM471 539l682 508l31 -46l-623 -462l459 -463l-47 -45z" />
    <glyph glyph-name="uni00AD" unicode="&#xad;" horiz-adv-x="962" 
d="M139 676l11 61h880l-10 -61h-881z" />
    <glyph glyph-name="registered" unicode="&#xae;" horiz-adv-x="1726" 
d="M141 231l172 971l295 232h973l213 -232l-172 -971l-293 -231h-973zM209 264l188 -203h912l258 203l159 905l-186 203h-911l-260 -203zM563 297l148 840h555l123 -146l-37 -203l-172 -145h-162l258 -313l-51 -43l-293 356h-246l-61 -346h-62zM696 705h469l131 108l27 154
l-92 108h-469z" />
    <glyph glyph-name="guillemotright" unicode="&#xbb;" horiz-adv-x="1048" 
d="M12 76l623 463l-459 462l47 46l502 -508l-682 -508zM369 76l622 463l-459 462l48 46l501 -508l-682 -508z" />
    <glyph glyph-name="afii10023" unicode="&#x401;" horiz-adv-x="1079" 
d="M143 0l252 1434h875l-10 -62h-814l-104 -584h727l-10 -61h-727l-117 -666h813l-10 -61h-875zM618 1651l11 57l37 33h57l29 -33l-11 -57l-39 -33h-57zM999 1651l11 57l37 33h57l29 -33l-11 -57l-39 -33h-57z" />
    <glyph glyph-name="afii10051" unicode="&#x402;" horiz-adv-x="1331" 
d="M180 1372l10 62h717l-10 -62h-328l-88 -498l103 31h637l120 -147l-114 -647l-117 -146l-256 -88l-8 57l225 74l96 111l109 614l-90 111h-608l-109 -33l-141 -811h-62l242 1372h-328z" />
    <glyph glyph-name="afii10052" unicode="&#x403;" 
d="M143 0l252 1434h852l-10 -62h-791l-241 -1372h-62zM780 1526l267 348h81l-286 -348h-62z" />
    <glyph glyph-name="afii10053" unicode="&#x404;" horiz-adv-x="1144" 
d="M135 190l187 1053l223 191h579l158 -191l-39 -213h-61l32 189l-124 153h-531l-182 -153l-82 -467h627l-11 -62h-626l-84 -475l127 -154h555l164 140l34 -43l-184 -158h-604z" />
    <glyph glyph-name="afii10054" unicode="&#x405;" horiz-adv-x="1122" 
d="M84 55l29 58l145 -52h557l180 152l43 242l-24 69l-746 389l-30 97l43 235l221 189h598l147 -54l-28 -57l-144 49h-559l-178 -151l-35 -195l23 -70l741 -385l35 -100l-49 -283l-224 -188h-587z" />
    <glyph glyph-name="afii10055" unicode="&#x406;" horiz-adv-x="741" 
d="M41 0l10 61h279l231 1311h-278l10 62h618l-10 -62h-278l-232 -1311h279l-11 -61h-618z" />
    <glyph glyph-name="afii10056" unicode="&#x407;" horiz-adv-x="741" 
d="M41 0l10 61h279l231 1311h-278l10 62h618l-10 -62h-278l-232 -1311h279l-11 -61h-618zM385 1630l10 58l39 32h58l26 -32l-10 -58l-39 -33h-57zM766 1630l10 58l39 32h57l27 -32l-10 -58l-39 -33h-57z" />
    <glyph glyph-name="afii10057" unicode="&#x408;" horiz-adv-x="1030" 
d="M14 203l52 43l151 -185h445l180 154l205 1157h-383l10 62h444l-219 -1244l-223 -190h-494z" />
    <glyph glyph-name="afii10058" unicode="&#x409;" horiz-adv-x="1968" 
d="M-12 49l157 49l86 74l353 1262h716l-108 -617h649l154 -192l-76 -432l-221 -193h-711l242 1372h-600l-344 -1227l-123 -102l-166 -51zM1059 61h622l181 158l67 379l-125 158h-622z" />
    <glyph glyph-name="afii10059" unicode="&#x40a;" horiz-adv-x="1961" 
d="M143 0l252 1434h62l-111 -629h776l111 629h61l-110 -629h649l154 -193l-74 -419l-221 -193h-711l131 743h-776l-131 -743h-62zM1053 61h622l180 158l66 367l-125 157h-622z" />
    <glyph glyph-name="afii10060" unicode="&#x40b;" horiz-adv-x="1331" 
d="M180 1372l10 62h717l-10 -62h-328l-88 -498l103 31h637l120 -147l-133 -758h-61l129 733l-90 111h-608l-109 -33l-141 -811h-62l242 1372h-328z" />
    <glyph glyph-name="afii10061" unicode="&#x40c;" horiz-adv-x="1153" 
d="M143 0l252 1434h62l-121 -686h315l514 638l183 58l8 -58l-156 -49l-500 -620l281 -621l139 -49l-28 -57l-162 57l-289 639h-315l-121 -686h-62zM756 1454l266 348h82l-287 -348h-61z" />
    <glyph glyph-name="afii10062" unicode="&#x40e;" horiz-adv-x="1083" 
d="M184 0l11 61h206l103 80l74 127l-349 1151l58 25l334 -1102l643 1102l49 -23l-770 -1317l-127 -104h-232zM453 1679l22 129h62l-19 -104l55 -68h490l80 68l18 104h62l-23 -129l-123 -104h-538z" />
    <glyph glyph-name="afii10145" unicode="&#x40f;" horiz-adv-x="1269" 
d="M143 0l252 1434h62l-242 -1373h819l242 1373h61l-252 -1434h-440l-61 -344h-62l62 344h-441z" />
    <glyph glyph-name="afii10017" unicode="&#x410;" horiz-adv-x="1142" 
d="M20 10l721 1424h123l217 -1424l-59 -20l-74 481h-631l-241 -481zM348 532h590l-127 840h-37z" />
    <glyph glyph-name="afii10018" unicode="&#x411;" horiz-adv-x="1206" 
d="M143 0l252 1434h875l-10 -62h-814l-98 -555h711l153 -192l-75 -432l-222 -193h-772zM215 61h684l180 158l68 379l-125 158h-684z" />
    <glyph glyph-name="afii10019" unicode="&#x412;" horiz-adv-x="1226" 
d="M143 0l252 1434h768l123 -150l-72 -410l-137 -116l131 -162l-71 -406l-224 -190h-770zM215 61h684l180 152l64 360l-127 154h-684zM342 788h684l131 111l64 363l-91 110h-684z" />
    <glyph glyph-name="afii10020" unicode="&#x413;" 
d="M143 0l252 1434h852l-10 -62h-791l-241 -1372h-62z" />
    <glyph glyph-name="afii10021" unicode="&#x414;" horiz-adv-x="1290" 
d="M-80 -344l70 405h112l129 150l344 1223h756l-241 -1373h149l-72 -405h-61l61 344h-1126l-61 -344h-60zM176 61h852l232 1311h-639l-336 -1184z" />
    <glyph glyph-name="afii10022" unicode="&#x415;" horiz-adv-x="1079" 
d="M143 0l252 1434h875l-10 -62h-814l-104 -584h727l-10 -61h-727l-117 -666h813l-10 -61h-875z" />
    <glyph glyph-name="afii10024" unicode="&#x416;" horiz-adv-x="1703" 
d="M8 47l156 49l498 621l-279 620l-139 49l28 58l162 -58l289 -638h209l121 686h61l-121 -686h209l514 638l182 58l9 -58l-156 -49l-500 -620l281 -621l139 -49l-29 -57l-161 57l-289 639h-209l-121 -686h-61l121 686h-209l-514 -639l-183 -57z" />
    <glyph glyph-name="afii10025" unicode="&#x417;" horiz-adv-x="1071" 
d="M-12 53l30 58l144 -50h581l181 154l59 332l-127 158h-450l10 61h448l166 139l57 326l-114 141h-559l-162 -51l-10 57l178 56h590l145 -177l-68 -378l-169 -144l131 -164l-68 -383l-221 -188h-623z" />
    <glyph glyph-name="afii10026" unicode="&#x418;" horiz-adv-x="1290" 
d="M143 0l252 1434h62l-242 -1364l1051 1364h92l-252 -1434h-62l240 1364l-1048 -1364h-93z" />
    <glyph glyph-name="afii10027" unicode="&#x419;" horiz-adv-x="1290" 
d="M143 0l252 1434h62l-242 -1364l1051 1364h92l-252 -1434h-62l240 1364l-1048 -1364h-93zM555 1733l23 129h61l-18 -105l55 -67h489l80 67l19 105h61l-22 -129l-123 -105h-539z" />
    <glyph glyph-name="afii10028" unicode="&#x41a;" horiz-adv-x="1153" 
d="M143 0l252 1434h62l-121 -686h315l514 638l183 58l8 -58l-156 -49l-500 -620l281 -621l139 -49l-28 -57l-162 57l-289 639h-315l-121 -686h-62z" />
    <glyph glyph-name="afii10029" unicode="&#x41b;" horiz-adv-x="1294" 
d="M-12 49l157 49l86 74l355 1262h776l-252 -1434h-61l241 1372h-661l-344 -1227l-123 -102l-166 -51z" />
    <glyph glyph-name="afii10030" unicode="&#x41c;" horiz-adv-x="1675" 
d="M143 0l252 1434h86l410 -988h8l758 988h86l-252 -1434h-61l239 1364l-749 -979h-70l-406 979l-239 -1364h-62z" />
    <glyph glyph-name="afii10031" unicode="&#x41d;" horiz-adv-x="1288" 
d="M143 0l252 1434h62l-113 -643h838l112 643h62l-252 -1434h-62l127 729h-837l-127 -729h-62z" />
    <glyph glyph-name="afii10032" unicode="&#x41e;" horiz-adv-x="1267" 
d="M135 190l187 1053l241 191h604l176 -191l-186 -1053l-242 -190h-604zM201 217l143 -156h559l197 156l176 1000l-141 155h-560l-198 -155z" />
    <glyph glyph-name="afii10033" unicode="&#x41f;" horiz-adv-x="1288" 
d="M143 0l252 1434h961l-252 -1434h-62l242 1372h-838l-241 -1372h-62z" />
    <glyph glyph-name="afii10034" unicode="&#x420;" horiz-adv-x="1206" 
d="M143 0l252 1434h770l158 -189l-82 -457l-223 -188h-709l-104 -600h-62zM319 662h685l184 153l69 404l-127 153h-684z" />
    <glyph glyph-name="afii10035" unicode="&#x421;" horiz-adv-x="1144" 
d="M135 190l187 1053l223 191h579l158 -191l-39 -213h-61l32 189l-124 153h-531l-182 -153l-176 -1004l127 -154h555l164 140l34 -43l-184 -158h-604z" />
    <glyph glyph-name="afii10036" unicode="&#x422;" horiz-adv-x="1024" 
d="M221 1372l10 62h1024l-10 -62h-481l-242 -1372h-61l241 1372h-481z" />
    <glyph glyph-name="afii10037" unicode="&#x423;" horiz-adv-x="1083" 
d="M184 0l11 61h206l103 80l74 127l-349 1151l58 25l334 -1102l643 1102l49 -23l-770 -1317l-127 -104h-232z" />
    <glyph glyph-name="afii10038" unicode="&#x424;" horiz-adv-x="1617" 
d="M147 375l136 766l223 190h485l41 236h62l-41 -236h485l158 -190l-135 -766l-226 -191h-485l-41 -235h-61l40 235h-485zM213 399l127 -153h461l180 1024h-461l-180 -154zM862 246h461l180 153l127 717l-127 154h-461z" />
    <glyph glyph-name="afii10039" unicode="&#x425;" horiz-adv-x="1105" 
d="M27 25l596 690l-355 696l56 33l344 -674l581 674l43 -33l-600 -696l355 -690l-56 -35l-344 669l-577 -669z" />
    <glyph glyph-name="afii10040" unicode="&#x426;" horiz-adv-x="1318" 
d="M143 0l252 1434h62l-242 -1373h819l242 1373h61l-241 -1373h172l-72 -405h-61l61 344h-1053z" />
    <glyph glyph-name="afii10041" unicode="&#x427;" horiz-adv-x="1228" 
d="M229 727l125 707h62l-121 -682l90 -111h608l109 33l133 760h61l-252 -1434h-61l107 610l-105 -30h-637z" />
    <glyph glyph-name="afii10042" unicode="&#x428;" horiz-adv-x="1945" 
d="M143 0l252 1434h60l-242 -1373h719l242 1373h61l-242 -1373h717l242 1373h61l-252 -1434h-1618z" />
    <glyph glyph-name="afii10043" unicode="&#x429;" horiz-adv-x="1996" 
d="M143 0l252 1434h62l-242 -1373h719l242 1373h61l-242 -1373h717l242 1373h61l-241 -1373h172l-72 -405h-62l62 344h-1731z" />
    <glyph glyph-name="afii10044" unicode="&#x42a;" horiz-adv-x="1363" 
d="M221 1372l10 62h404l-109 -617h711l154 -192l-76 -432l-221 -193h-772l241 1372h-342zM393 61h684l180 158l68 379l-125 158h-684z" />
    <glyph glyph-name="afii10045" unicode="&#x42b;" horiz-adv-x="1601" 
d="M143 0l252 1434h62l-109 -617h711l153 -192l-75 -432l-222 -193h-772zM215 61h684l180 158l68 379l-125 158h-684zM1356 0l252 1434h61l-252 -1434h-61z" />
    <glyph glyph-name="afii10046" unicode="&#x42c;" horiz-adv-x="1185" 
d="M143 0l252 1434h62l-109 -617h711l153 -192l-75 -432l-222 -193h-772zM215 61h684l180 158l68 379l-125 158h-684z" />
    <glyph glyph-name="afii10047" unicode="&#x42d;" horiz-adv-x="1144" 
d="M76 158l51 43l115 -140h555l180 154l84 475h-627l10 62h627l82 467l-125 153h-530l-183 -153l-32 -189h-62l39 213l223 191h580l158 -191l-187 -1053l-223 -190h-604z" />
    <glyph glyph-name="afii10048" unicode="&#x42e;" horiz-adv-x="1740" 
d="M143 0l252 1434h62l-115 -646h424l82 455l242 191h550l177 -191l-187 -1053l-241 -190h-551l-176 190l94 537h-424l-127 -727h-62zM727 217l143 -156h506l197 156l176 1000l-141 155h-506l-199 -155z" />
    <glyph glyph-name="afii10049" unicode="&#x42f;" horiz-adv-x="1220" 
d="M70 49l155 49l389 502h-231l-158 188l82 457l223 189h758l-252 -1434h-61l104 600h-393l-426 -551l-182 -57zM291 815l127 -153h672l127 710h-672l-185 -153z" />
    <glyph glyph-name="afii10065" unicode="&#x430;" horiz-adv-x="1079" 
d="M106 147l142 797l174 148h524l125 -148l-131 -735l16 -203l-59 -14l-14 158l-172 -150h-480zM172 172l94 -111h430l185 158l125 701l-95 110h-475l-131 -110z" />
    <glyph glyph-name="afii10066" unicode="&#x431;" horiz-adv-x="1107" 
d="M127 147l182 1037l258 219l492 74l168 143l35 -43l-183 -156l-489 -73l-223 -189l-48 -270l140 119h524l123 -148l-127 -713l-172 -147h-557zM193 172l92 -111h508l129 111l116 664l-90 110h-475l-168 -143z" />
    <glyph glyph-name="afii10067" unicode="&#x432;" horiz-adv-x="1056" 
d="M121 113l153 866l132 113h571l94 -113l-59 -330l-97 -82l97 -114l-54 -308l-170 -145h-573zM186 137l64 -76h522l129 111l45 254l-94 113h-594zM268 600h598l90 76l50 278l-64 76h-522l-88 -76z" />
    <glyph glyph-name="afii10068" unicode="&#x433;" horiz-adv-x="956" 
d="M66 147l34 195l70 98l731 258l45 68l27 152l-92 112h-482l-161 -51l-9 57l174 56h515l122 -148l-34 -192l-70 -101l-731 -258l-45 -67l-29 -152l94 -113h486l159 50l9 -58l-174 -53h-517z" />
    <glyph glyph-name="afii10069" unicode="&#x434;" horiz-adv-x="1097" 
d="M127 147l127 713l172 148h524l99 -119l51 295l-154 188h-430l-164 -51l-8 57l176 56h461l186 -226l-188 -1061l-172 -147h-557zM193 172l92 -111h508l129 111l112 631l-119 143h-475l-131 -110z" />
    <glyph glyph-name="afii10070" unicode="&#x435;" horiz-adv-x="1036" 
d="M127 147l141 797l172 148h537l123 -148l-53 -299l-175 -147h-622l-57 -326l92 -111h481l162 50l8 -58l-174 -53h-512zM262 559h598l129 111l45 250l-92 110h-487l-129 -110z" />
    <glyph glyph-name="afii10072" unicode="&#x436;" horiz-adv-x="1454" 
d="M6 43l119 57l422 445l-264 444l-99 58l37 53l113 -66l272 -459h170l90 517h62l-90 -517h170l436 459l133 66l20 -53l-118 -58l-424 -444l266 -445l98 -57l-37 -53l-112 65l-273 459h-170l-90 -514h-61l90 514h-170l-436 -459l-133 -65z" />
    <glyph glyph-name="afii10073" unicode="&#x437;" horiz-adv-x="952" 
d="M8 53l29 58l145 -50h486l129 111l43 244l-92 112h-433l11 62h438l115 98l41 240l-84 102h-463l-162 -51l-8 57l174 56h493l115 -140l-49 -286l-127 -109l96 -117l-51 -293l-172 -147h-516z" />
    <glyph glyph-name="afii10074" unicode="&#x438;" horiz-adv-x="1110" 
d="M127 147l166 945h61l-161 -918l94 -113h440l184 158l154 873h61l-155 -883l16 -203l-59 -14l-15 158l-172 -150h-491z" />
    <glyph glyph-name="afii10075" unicode="&#x439;" horiz-adv-x="1110" 
d="M127 147l166 945h61l-161 -918l94 -113h440l184 158l154 873h61l-155 -883l16 -203l-59 -14l-15 158l-172 -150h-491zM393 1391l23 129h61l-18 -105l57 -67h481l78 67l19 105h61l-22 -129l-123 -105h-531z" />
    <glyph glyph-name="afii10076" unicode="&#x43a;" horiz-adv-x="974" 
d="M102 0l191 1092h61l-90 -517h264l437 459l133 66l20 -53l-119 -58l-424 -444l267 -445l98 -57l-37 -53l-112 65l-273 459h-264l-90 -514h-62z" />
    <glyph glyph-name="afii10077" unicode="&#x43b;" horiz-adv-x="1099" 
d="M-12 49l157 51l86 72l248 920h668l-191 -1092h-61l180 1030h-551l-239 -889l-111 -92l-178 -57z" />
    <glyph glyph-name="afii10078" unicode="&#x43c;" horiz-adv-x="1335" 
d="M102 0l191 1092h90l315 -770h9l585 770h90l-190 -1092h-62l179 1016l-578 -760h-78l-311 760l-178 -1016h-62z" />
    <glyph glyph-name="afii10079" unicode="&#x43d;" horiz-adv-x="1107" 
d="M133 0l162 928l-25 151l62 19l26 -166l-61 -344h709l88 504h61l-190 -1092h-62l92 526h-708l-92 -526h-62z" />
    <glyph glyph-name="afii10080" unicode="&#x43e;" horiz-adv-x="1087" 
d="M127 150l141 792l172 150h547l123 -150l-141 -792l-172 -150h-547zM193 172l92 -111h497l129 111l133 748l-92 110h-497l-129 -110z" />
    <glyph glyph-name="afii10081" unicode="&#x43f;" horiz-adv-x="1110" 
d="M133 0l154 883l-15 202l60 15l14 -158l172 150h492l123 -148l-166 -944h-62l160 918l-92 112h-441l-184 -158l-153 -872h-62z" />
    <glyph glyph-name="afii10082" unicode="&#x440;" horiz-adv-x="1107" 
d="M72 -344l215 1227l-15 202l60 15l14 -158l172 150h492l120 -146l-141 -801l-170 -145h-538l-72 86l-76 -430h-61zM223 172l92 -111h490l127 109l133 752l-90 108h-443l-184 -158z" />
    <glyph glyph-name="afii10083" unicode="&#x441;" 
d="M127 147l141 797l170 148h541l121 -148l-39 -215h-62l35 191l-90 110h-491l-127 -110l-133 -748l90 -111h483l162 50l8 -58l-174 -53h-514z" />
    <glyph glyph-name="afii10084" unicode="&#x442;" horiz-adv-x="1669" 
d="M133 0l154 883l-15 202l60 15l14 -158l172 150h385l96 -117l136 117h434l123 -148l-166 -944h-62l160 918l-92 112h-381l-129 -110l-162 -920h-61l159 918l-92 112h-334l-184 -158l-153 -872h-62z" />
    <glyph glyph-name="afii10085" unicode="&#x443;" horiz-adv-x="972" 
d="M100 -344l11 61h190l84 72l111 211h-64l-244 1075l62 23l233 -1037h43l541 1037l53 -21l-686 -1317l-123 -104h-211z" />
    <glyph glyph-name="afii10086" unicode="&#x444;" horiz-adv-x="1433" 
d="M127 145l141 801l170 146h320l94 -33l37 215l86 168l53 -19l-78 -153l-37 -211l103 33h319l121 -146l-141 -801l-170 -145h-320l-94 31l-37 -213l-84 -168l-53 20l76 152l37 209l-103 -31h-319zM193 172l92 -111h288l109 33l158 901l-97 35h-288l-129 -110zM743 94
l97 -33h288l129 111l134 748l-93 110h-288l-109 -35z" />
    <glyph glyph-name="afii10087" unicode="&#x445;" horiz-adv-x="897" 
d="M4 25l483 522l-301 518l56 37l290 -504l467 504l43 -37l-481 -518l299 -522l-57 -37l-289 506l-469 -506z" />
    <glyph glyph-name="afii10088" unicode="&#x446;" horiz-adv-x="1126" 
d="M127 147l166 945h61l-161 -918l94 -113h440l184 158l154 873h61l-157 -906l104 -129l-59 -344h-62l56 320l-95 117l-172 -150h-491z" />
    <glyph glyph-name="afii10089" unicode="&#x447;" horiz-adv-x="1021" 
d="M182 575l90 517h62l-86 -490l92 -110h461l108 32l99 568h61l-190 -1092h-62l80 461l-102 -31h-492z" />
    <glyph glyph-name="afii10090" unicode="&#x448;" horiz-adv-x="1669" 
d="M127 147l166 945h61l-161 -918l94 -113h381l129 111l161 920h62l-162 -918l94 -113h334l184 158l154 873h62l-156 -883l16 -203l-59 -14l-14 158l-173 -150h-385l-96 117l-135 -117h-434z" />
    <glyph glyph-name="afii10091" unicode="&#x449;" horiz-adv-x="1685" 
d="M127 147l166 945h61l-161 -918l94 -113h381l129 111l161 920h62l-162 -918l94 -113h334l184 158l154 873h62l-158 -906l104 -129l-59 -344h-62l56 320l-94 117l-173 -150h-385l-96 117l-135 -117h-434z" />
    <glyph glyph-name="afii10092" unicode="&#x44a;" horiz-adv-x="1232" 
d="M180 1030l10 62h379l-80 -457h625l121 -148l-59 -340l-172 -147h-574l-94 113l162 917h-318zM401 137l64 -76h524l129 111l51 291l-90 110h-600z" />
    <glyph glyph-name="afii10093" unicode="&#x44b;" horiz-adv-x="1335" 
d="M121 113l172 979h61l-80 -457h625l121 -148l-59 -340l-173 -147h-573zM186 137l64 -76h524l129 111l51 291l-90 110h-600zM1130 0l191 1092h61l-190 -1092h-62z" />
    <glyph glyph-name="afii10094" unicode="&#x44c;" horiz-adv-x="1017" 
d="M121 113l172 979h61l-80 -457h625l121 -148l-59 -340l-173 -147h-573zM186 137l64 -76h524l129 111l51 291l-90 110h-600z" />
    <glyph glyph-name="afii10095" unicode="&#x44d;" 
d="M55 53l29 58l145 -50h484l127 111l61 340h-551l10 61h551l62 347l-90 110h-492l-127 -110l-35 -191h-61l39 215l170 148h541l120 -148l-141 -797l-170 -147h-514z" />
    <glyph glyph-name="afii10096" unicode="&#x44e;" horiz-adv-x="1452" 
d="M102 0l191 1092h61l-88 -504h334l64 354l172 150h516l123 -150l-142 -792l-172 -150h-516l-123 150l68 376h-334l-92 -526h-62zM588 172l92 -111h467l129 111l133 748l-92 110h-467l-129 -110z" />
    <glyph glyph-name="afii10097" unicode="&#x44f;" horiz-adv-x="1040" 
d="M47 43l119 57l332 367h-205l-121 143l59 338l170 144h686l-190 -1092h-61l82 467h-345l-372 -412l-133 -65zM238 637l92 -109h598l88 502h-598l-129 -108z" />
    <glyph glyph-name="afii10071" unicode="&#x451;" horiz-adv-x="1036" 
d="M127 147l141 797l172 148h537l123 -148l-53 -299l-175 -147h-622l-57 -326l92 -111h481l162 50l8 -58l-174 -53h-512zM262 559h598l129 111l45 250l-92 110h-487l-129 -110zM504 1292l10 58l39 32h57l27 -32l-10 -58l-39 -32h-58zM864 1292l10 58l39 32h58l26 -32
l-10 -58l-39 -32h-57z" />
    <glyph glyph-name="afii10099" unicode="&#x452;" horiz-adv-x="1144" 
d="M178 1133l10 61h211l15 76l-25 151l62 21l24 -168l-14 -80h424l-11 -61h-423l-58 -326l139 121h506l121 -148l-119 -669l-116 -146l-256 -88l-9 57l226 74l96 111l111 635l-91 112h-452l-172 -147l-125 -719h-62l199 1133h-211z" />
    <glyph glyph-name="afii10100" unicode="&#x453;" horiz-adv-x="956" 
d="M66 147l34 195l70 98l731 258l45 68l27 152l-92 112h-482l-161 -51l-9 57l174 56h515l122 -148l-34 -192l-70 -101l-731 -258l-45 -67l-29 -152l94 -113h486l159 50l9 -58l-174 -53h-517zM616 1184l267 348h82l-287 -348h-62z" />
    <glyph glyph-name="afii10101" unicode="&#x454;" 
d="M127 147l141 797l170 148h541l121 -148l-39 -215h-62l35 191l-90 110h-491l-127 -110l-62 -347h551l-10 -61h-551l-61 -340l90 -111h483l162 50l8 -58l-174 -53h-514z" />
    <glyph glyph-name="afii10102" unicode="&#x455;" horiz-adv-x="956" 
d="M53 53l29 58l143 -50h486l131 113l30 164l-24 68l-637 258l-37 100l33 180l172 148h514l158 -56l-29 -57l-145 51h-482l-133 -112l-22 -140l22 -67l637 -258l37 -99l-37 -207l-172 -147h-516z" />
    <glyph glyph-name="afii10103" unicode="&#x456;" horiz-adv-x="366" 
d="M131 0l164 938l-21 162l62 18l22 -176l-165 -942h-62zM332 1313l8 57l39 33h57l27 -33l-8 -57l-39 -33h-58z" />
    <glyph glyph-name="afii10104" unicode="&#x457;" horiz-adv-x="366" 
d="M131 0l164 938l-21 162l62 18l22 -176l-165 -942h-62zM193 1313l8 57l39 33h57l27 -33l-9 -57l-39 -33h-57zM471 1313l8 57l39 33h57l27 -33l-8 -57l-39 -33h-57z" />
    <glyph glyph-name="afii10105" unicode="&#x458;" horiz-adv-x="380" 
d="M-195 -297l224 74l96 110l186 1059l-24 154l61 18l25 -168l-189 -1071l-116 -145l-254 -88zM346 1313l8 57l39 33h58l26 -33l-8 -57l-39 -33h-57z" />
    <glyph glyph-name="afii10106" unicode="&#x459;" horiz-adv-x="1687" 
d="M-12 49l157 51l86 72l250 920h604l-79 -457h563l121 -148l-60 -340l-172 -147h-512l-94 113l162 917h-490l-239 -889l-111 -92l-178 -57zM918 137l63 -76h463l129 111l51 291l-90 110h-539z" />
    <glyph glyph-name="afii10107" unicode="&#x45a;" horiz-adv-x="1695" 
d="M133 0l162 928l-25 151l62 19l26 -166l-57 -320h647l84 480h62l-84 -480h563l123 -147l-58 -318l-172 -147h-512l-94 113l78 438h-647l-96 -551h-62zM926 137l63 -76h463l129 111l47 268l-90 111h-539z" />
    <glyph glyph-name="afii10108" unicode="&#x45b;" horiz-adv-x="1144" 
d="M180 1143l10 61h211l13 66l-25 151l62 21l24 -168l-12 -70h424l-10 -61h-424l-64 -357l141 121h506l119 -147l-133 -760h-61l129 733l-93 113h-452l-170 -148l-123 -698h-62l201 1143h-211z" />
    <glyph glyph-name="afii10109" unicode="&#x45c;" horiz-adv-x="974" 
d="M102 0l191 1092h61l-90 -517h264l437 459l133 66l20 -53l-119 -58l-424 -444l267 -445l98 -57l-37 -53l-112 65l-273 459h-264l-90 -514h-62zM588 1112l266 348h82l-287 -348h-61z" />
    <glyph glyph-name="afii10110" unicode="&#x45e;" horiz-adv-x="972" 
d="M100 -344l11 61h190l84 72l111 211h-64l-244 1075l62 23l233 -1037h43l541 1037l53 -21l-686 -1317l-123 -104h-211zM344 1356l23 129h61l-18 -105l57 -67h481l78 67l18 105h62l-23 -129l-122 -105h-531z" />
    <glyph glyph-name="afii10193" unicode="&#x45f;" horiz-adv-x="1067" 
d="M102 0l191 1092h61l-180 -1031h698l181 1031h61l-190 -1092h-379l-51 -287h-62l51 287h-381z" />
    <glyph glyph-name="afii10050" unicode="&#x490;" 
d="M143 0l252 1434h791l28 163h62l-39 -225h-791l-241 -1372h-62z" />
    <glyph glyph-name="afii10098" unicode="&#x491;" horiz-adv-x="847" 
d="M102 0l191 1092h663l27 143h61l-36 -205h-664l-180 -1030h-62z" />
    <glyph glyph-name="uni2000" unicode="&#x2000;" horiz-adv-x="937" 
 />
    <glyph glyph-name="uni2001" unicode="&#x2001;" horiz-adv-x="1874" 
 />
    <glyph glyph-name="uni2002" unicode="&#x2002;" horiz-adv-x="937" 
 />
    <glyph glyph-name="uni2003" unicode="&#x2003;" horiz-adv-x="1874" 
 />
    <glyph glyph-name="uni2004" unicode="&#x2004;" horiz-adv-x="624" 
 />
    <glyph glyph-name="uni2005" unicode="&#x2005;" horiz-adv-x="468" 
 />
    <glyph glyph-name="uni2006" unicode="&#x2006;" horiz-adv-x="312" 
 />
    <glyph glyph-name="uni2007" unicode="&#x2007;" horiz-adv-x="312" 
 />
    <glyph glyph-name="uni2008" unicode="&#x2008;" horiz-adv-x="234" 
 />
    <glyph glyph-name="uni2009" unicode="&#x2009;" horiz-adv-x="374" 
 />
    <glyph glyph-name="uni200A" unicode="&#x200a;" horiz-adv-x="104" 
 />
    <glyph glyph-name="uni2010" unicode="&#x2010;" horiz-adv-x="962" 
d="M139 676l11 61h880l-10 -61h-881z" />
    <glyph glyph-name="uni2011" unicode="&#x2011;" horiz-adv-x="962" 
d="M139 676l11 61h880l-10 -61h-881z" />
    <glyph glyph-name="figuredash" unicode="&#x2012;" horiz-adv-x="962" 
d="M139 676l11 61h880l-10 -61h-881z" />
    <glyph glyph-name="endash" unicode="&#x2013;" horiz-adv-x="1044" 
d="M121 573l10 62h963l-11 -62h-962z" />
    <glyph glyph-name="emdash" unicode="&#x2014;" horiz-adv-x="1429" 
d="M121 573l10 62h1348l-11 -62h-1347z" />
    <glyph glyph-name="quoteleft" unicode="&#x2018;" horiz-adv-x="225" 
d="M145 942l250 492h41l-198 -492h-93z" />
    <glyph glyph-name="quoteright" unicode="&#x2019;" horiz-adv-x="225" 
d="M166 942l199 492h92l-250 -492h-41z" />
    <glyph glyph-name="quotesinglbase" unicode="&#x201a;" horiz-adv-x="225" 
d="M-63 -369l196 492h92l-248 -492h-40z" />
    <glyph glyph-name="quotedblleft" unicode="&#x201c;" horiz-adv-x="460" 
d="M145 942l250 492h41l-198 -492h-93zM381 942l250 492h41l-199 -492h-92z" />
    <glyph glyph-name="quotedblright" unicode="&#x201d;" horiz-adv-x="460" 
d="M166 942l199 492h92l-250 -492h-41zM401 942l199 492h92l-250 -492h-41z" />
    <glyph glyph-name="quotedblbase" unicode="&#x201e;" horiz-adv-x="460" 
d="M-63 -369l196 492h92l-248 -492h-40zM170 -369l199 492h92l-250 -492h-41z" />
    <glyph glyph-name="bullet" unicode="&#x2022;" horiz-adv-x="806" 
d="M205 584l47 266l172 147h266l123 -147l-47 -266l-174 -148h-266z" />
    <glyph glyph-name="ellipsis" unicode="&#x2026;" horiz-adv-x="860" 
d="M63 23l11 57l39 33h57l27 -33l-11 -57l-36 -33h-58zM350 23l10 57l39 33h58l26 -33l-10 -57l-37 -33h-57zM637 23l10 57l39 33h57l27 -33l-10 -57l-37 -33h-57z" />
    <glyph glyph-name="uni202F" unicode="&#x202f;" horiz-adv-x="374" 
 />
    <glyph glyph-name="guilsinglleft" unicode="&#x2039;" horiz-adv-x="677" 
d="M109 510l10 57l665 480l29 -46l-641 -462l477 -463l-45 -45z" />
    <glyph glyph-name="guilsinglright" unicode="&#x203a;" horiz-adv-x="677" 
d="M12 76l641 463l-477 462l45 46l494 -480l-10 -57l-664 -479z" />
    <glyph glyph-name="uni205F" unicode="&#x205f;" horiz-adv-x="468" 
 />
    <glyph glyph-name="Euro" unicode="&#x20ac;" horiz-adv-x="1165" 
d="M57 563l11 62h163l33 184h-143l10 61h143l68 373l223 191h580l158 -191l-39 -213h-62l33 189l-125 153h-530l-183 -153l-61 -349h655l-10 -61h-655l-33 -184h635l-10 -62h-635l-62 -348l127 -154h555l164 140l35 -43l-184 -158h-605l-157 190l65 373h-164z" />
    <glyph glyph-name="trademark" unicode="&#x2122;" horiz-adv-x="1433" 
d="M221 1372l10 62h574l-10 -62h-256l-109 -614h-61l108 614h-256zM788 758l119 676h90l166 -410l310 410h90l-119 -676h-62l107 604l-301 -397h-70l-162 397l-106 -604h-62z" />
    <glyph glyph-name="uniE000" unicode="&#xe000;" horiz-adv-x="1105" 
d="M0 0v1106h1106v-1106h-1106z" />
    </font>
</defs>
</svg>
