<svg id="Слой_1" data-name="Слой 1" xmlns="http://www.w3.org/2000/svg" viewBox="0 0 47.08 82.7"><defs><style>.cls-1{fill:#ba3232;}</style></defs><title>Монтажная область 1</title><path class="cls-1" d="M.48,67.11c1.23-2.5,3.88-4,6.52-5.24,3-1.37,5.52-1.13,5.32,2.32-.16,2.87-5.72,2.31-5.2,5.11C8.91,78.92,34.39,79.87,40,70c1.42-2.47-3.78-3.44-4.08-5.62s6.61-6.66,10.64,2.71a5.69,5.69,0,0,1,0,4.61C39.82,85.08,7.16,87.58.48,71.72A5.8,5.8,0,0,1,.48,67.11Z"/><path class="cls-1" d="M26.63.28c-12-1.9-23,6-25.56,18.18C-.28,25,1.45,31.07,3.94,36.93c5,11.68,11.77,22.35,19.22,34.74,8-13.62,16-25.45,20.76-39a33.74,33.74,0,0,0,1.58-7.25A22.76,22.76,0,0,0,26.63.28Zm-3,27.65A8,8,0,0,1,15,20.16c0-4.16,3.53-7.74,8.32-7.87,4.26.21,7.3,2.72,7.55,7.43S28.44,27.4,23.66,27.93Z"/></svg>